# Goxel 0.10.0
v 3 0 0 1.000000 1.000000 1.000000
v 4 0 0 1.000000 1.000000 1.000000
v 4 0 1 1.000000 1.000000 1.000000
v 3 0 1 1.000000 1.000000 1.000000
v 3 1 0 1.000000 1.000000 1.000000
v 4 1 0 1.000000 1.000000 1.000000
v 4 1 1 1.000000 1.000000 1.000000
v 3 1 1 1.000000 1.000000 1.000000
v 5 0 0 1.000000 1.000000 1.000000
v 5 0 1 1.000000 1.000000 1.000000
v 5 1 0 1.000000 1.000000 1.000000
v 5 1 1 1.000000 1.000000 1.000000
v 3 2 0 1.000000 1.000000 1.000000
v 4 2 0 1.000000 1.000000 1.000000
v 4 2 1 1.000000 1.000000 1.000000
v 3 2 1 1.000000 1.000000 1.000000
v 3 3 0 1.000000 1.000000 1.000000
v 4 3 0 1.000000 1.000000 1.000000
v 4 3 1 1.000000 1.000000 1.000000
v 3 3 1 1.000000 1.000000 1.000000
v 6 2 0 1.000000 1.000000 1.000000
v 7 2 0 1.000000 1.000000 1.000000
v 7 2 1 1.000000 1.000000 1.000000
v 6 2 1 1.000000 1.000000 1.000000
v 6 3 0 1.000000 1.000000 1.000000
v 7 3 0 1.000000 1.000000 1.000000
v 7 3 1 1.000000 1.000000 1.000000
v 6 3 1 1.000000 1.000000 1.000000
v 8 2 0 1.000000 1.000000 1.000000
v 8 2 1 1.000000 1.000000 1.000000
v 8 3 0 1.000000 1.000000 1.000000
v 8 3 1 1.000000 1.000000 1.000000
v 2 3 0 1.000000 1.000000 1.000000
v 2 3 1 1.000000 1.000000 1.000000
v 2 4 0 1.000000 1.000000 1.000000
v 3 4 0 1.000000 1.000000 1.000000
v 3 4 1 1.000000 1.000000 1.000000
v 2 4 1 1.000000 1.000000 1.000000
v 4 4 0 1.000000 1.000000 1.000000
v 4 4 1 1.000000 1.000000 1.000000
v 5 3 0 1.000000 1.000000 1.000000
v 5 3 1 1.000000 1.000000 1.000000
v 5 4 0 1.000000 1.000000 1.000000
v 5 4 1 1.000000 1.000000 1.000000
v 6 4 0 1.000000 1.000000 1.000000
v 6 4 1 1.000000 1.000000 1.000000
v 7 4 0 1.000000 1.000000 1.000000
v 7 4 1 1.000000 1.000000 1.000000
v 9 3 0 1.000000 1.000000 1.000000
v 9 3 1 1.000000 1.000000 1.000000
v 8 4 0 1.000000 1.000000 1.000000
v 9 4 0 1.000000 1.000000 1.000000
v 9 4 1 1.000000 1.000000 1.000000
v 8 4 1 1.000000 1.000000 1.000000
v 10 3 0 1.000000 1.000000 1.000000
v 10 3 1 1.000000 1.000000 1.000000
v 10 4 0 1.000000 1.000000 1.000000
v 10 4 1 1.000000 1.000000 1.000000
v 1 4 0 1.000000 1.000000 1.000000
v 1 4 1 1.000000 1.000000 1.000000
v 1 5 0 1.000000 1.000000 1.000000
v 2 5 0 1.000000 1.000000 1.000000
v 2 5 1 1.000000 1.000000 1.000000
v 1 5 1 1.000000 1.000000 1.000000
v 3 5 0 1.000000 1.000000 1.000000
v 3 5 1 1.000000 1.000000 1.000000
v 4 5 0 1.000000 1.000000 1.000000
v 4 5 1 1.000000 1.000000 1.000000
v 5 5 0 1.000000 1.000000 1.000000
v 5 5 1 1.000000 1.000000 1.000000
v 6 5 0 1.000000 1.000000 1.000000
v 6 5 1 1.000000 1.000000 1.000000
v 7 5 0 1.000000 1.000000 1.000000
v 7 5 1 1.000000 1.000000 1.000000
v 8 5 0 1.000000 1.000000 1.000000
v 8 5 1 1.000000 1.000000 1.000000
v 9 5 0 1.000000 1.000000 1.000000
v 9 5 1 1.000000 1.000000 1.000000
v 10 5 0 1.000000 1.000000 1.000000
v 10 5 1 1.000000 1.000000 1.000000
v 11 4 0 1.000000 1.000000 1.000000
v 11 4 1 1.000000 1.000000 1.000000
v 11 5 0 1.000000 1.000000 1.000000
v 11 5 1 1.000000 1.000000 1.000000
v 12 4 0 1.000000 1.000000 1.000000
v 13 4 0 1.000000 1.000000 1.000000
v 13 4 1 1.000000 1.000000 1.000000
v 12 4 1 1.000000 1.000000 1.000000
v 12 5 0 1.000000 1.000000 1.000000
v 13 5 0 1.000000 1.000000 1.000000
v 13 5 1 1.000000 1.000000 1.000000
v 12 5 1 1.000000 1.000000 1.000000
v 14 4 0 1.000000 1.000000 1.000000
v 14 4 1 1.000000 1.000000 1.000000
v 14 5 0 1.000000 1.000000 1.000000
v 14 5 1 1.000000 1.000000 1.000000
v 15 4 0 1.000000 1.000000 1.000000
v 15 4 1 1.000000 1.000000 1.000000
v 15 5 0 1.000000 1.000000 1.000000
v 15 5 1 1.000000 1.000000 1.000000
v 16 4 0 1.000000 1.000000 1.000000
v 16 4 1 1.000000 1.000000 1.000000
v 16 5 0 1.000000 1.000000 1.000000
v 16 5 1 1.000000 1.000000 1.000000
v 0 5 0 1.000000 1.000000 1.000000
v 0 5 1 1.000000 1.000000 1.000000
v 0 6 0 1.000000 1.000000 1.000000
v 1 6 0 1.000000 1.000000 1.000000
v 1 6 1 1.000000 1.000000 1.000000
v 0 6 1 1.000000 1.000000 1.000000
v 2 6 0 1.000000 1.000000 1.000000
v 2 6 1 1.000000 1.000000 1.000000
v 3 6 0 1.000000 1.000000 1.000000
v 3 6 1 1.000000 1.000000 1.000000
v 4 6 0 1.000000 1.000000 1.000000
v 4 6 1 1.000000 1.000000 1.000000
v 5 6 0 1.000000 1.000000 1.000000
v 5 6 1 1.000000 1.000000 1.000000
v 6 6 0 1.000000 1.000000 1.000000
v 6 6 1 1.000000 1.000000 1.000000
v 7 6 0 1.000000 1.000000 1.000000
v 7 6 1 1.000000 1.000000 1.000000
v 8 6 0 1.000000 1.000000 1.000000
v 8 6 1 1.000000 1.000000 1.000000
v 9 6 0 1.000000 1.000000 1.000000
v 9 6 1 1.000000 1.000000 1.000000
v 10 6 0 1.000000 1.000000 1.000000
v 10 6 1 1.000000 1.000000 1.000000
v 11 6 0 1.000000 1.000000 1.000000
v 11 6 1 1.000000 1.000000 1.000000
v 12 6 0 1.000000 1.000000 1.000000
v 12 6 1 1.000000 1.000000 1.000000
v 13 6 0 1.000000 1.000000 1.000000
v 13 6 1 1.000000 1.000000 1.000000
v 14 6 0 1.000000 1.000000 1.000000
v 14 6 1 1.000000 1.000000 1.000000
v 15 6 0 1.000000 1.000000 1.000000
v 15 6 1 1.000000 1.000000 1.000000
v 0 7 0 1.000000 1.000000 1.000000
v 1 7 0 1.000000 1.000000 1.000000
v 1 7 1 1.000000 1.000000 1.000000
v 0 7 1 1.000000 1.000000 1.000000
v 2 7 0 1.000000 1.000000 1.000000
v 2 7 1 1.000000 1.000000 1.000000
v 3 7 0 1.000000 1.000000 1.000000
v 3 7 1 1.000000 1.000000 1.000000
v 4 7 0 1.000000 1.000000 1.000000
v 4 7 1 1.000000 1.000000 1.000000
v 5 7 0 1.000000 1.000000 1.000000
v 5 7 1 1.000000 1.000000 1.000000
v 6 7 0 1.000000 1.000000 1.000000
v 6 7 1 1.000000 1.000000 1.000000
v 7 7 0 1.000000 1.000000 1.000000
v 7 7 1 1.000000 1.000000 1.000000
v 8 7 0 1.000000 1.000000 1.000000
v 8 7 1 1.000000 1.000000 1.000000
v 9 7 0 1.000000 1.000000 1.000000
v 9 7 1 1.000000 1.000000 1.000000
v 10 7 0 1.000000 1.000000 1.000000
v 10 7 1 1.000000 1.000000 1.000000
v 11 7 0 1.000000 1.000000 1.000000
v 11 7 1 1.000000 1.000000 1.000000
v 12 7 0 1.000000 1.000000 1.000000
v 12 7 1 1.000000 1.000000 1.000000
v 13 7 0 1.000000 1.000000 1.000000
v 13 7 1 1.000000 1.000000 1.000000
v 14 7 0 1.000000 1.000000 1.000000
v 14 7 1 1.000000 1.000000 1.000000
v 15 7 0 1.000000 1.000000 1.000000
v 15 7 1 1.000000 1.000000 1.000000
v 16 6 0 1.000000 1.000000 1.000000
v 16 6 1 1.000000 1.000000 1.000000
v 16 7 0 1.000000 1.000000 1.000000
v 16 7 1 1.000000 1.000000 1.000000
v 0 8 0 1.000000 1.000000 1.000000
v 1 8 0 1.000000 1.000000 1.000000
v 1 8 1 1.000000 1.000000 1.000000
v 0 8 1 1.000000 1.000000 1.000000
v 2 8 0 1.000000 1.000000 1.000000
v 2 8 1 1.000000 1.000000 1.000000
v 5 8 0 1.000000 1.000000 1.000000
v 4 8 0 1.000000 1.000000 1.000000
v 4 8 1 1.000000 1.000000 1.000000
v 5 8 1 1.000000 1.000000 1.000000
v 6 8 0 1.000000 1.000000 1.000000
v 6 8 1 1.000000 1.000000 1.000000
v 7 8 0 1.000000 1.000000 1.000000
v 7 8 1 1.000000 1.000000 1.000000
v 8 8 0 1.000000 1.000000 1.000000
v 8 8 1 1.000000 1.000000 1.000000
v 9 8 0 1.000000 1.000000 1.000000
v 9 8 1 1.000000 1.000000 1.000000
v 10 8 0 1.000000 1.000000 1.000000
v 10 8 1 1.000000 1.000000 1.000000
v 11 8 0 1.000000 1.000000 1.000000
v 11 8 1 1.000000 1.000000 1.000000
v 13 8 0 1.000000 1.000000 1.000000
v 12 8 0 1.000000 1.000000 1.000000
v 12 8 1 1.000000 1.000000 1.000000
v 13 8 1 1.000000 1.000000 1.000000
v 14 8 0 1.000000 1.000000 1.000000
v 14 8 1 1.000000 1.000000 1.000000
v 15 8 0 1.000000 1.000000 1.000000
v 16 8 0 1.000000 1.000000 1.000000
v 16 8 1 1.000000 1.000000 1.000000
v 15 8 1 1.000000 1.000000 1.000000
v 1 9 0 1.000000 1.000000 1.000000
v 0 9 0 1.000000 1.000000 1.000000
v 0 9 1 1.000000 1.000000 1.000000
v 1 9 1 1.000000 1.000000 1.000000
v 14 9 0 1.000000 1.000000 1.000000
v 13 9 0 1.000000 1.000000 1.000000
v 13 9 1 1.000000 1.000000 1.000000
v 14 9 1 1.000000 1.000000 1.000000
v 15 9 0 1.000000 1.000000 1.000000
v 15 9 1 1.000000 1.000000 1.000000
v 16 9 0 1.000000 1.000000 1.000000
v 16 9 1 1.000000 1.000000 1.000000
v 17 4 0 1.000000 1.000000 1.000000
v 17 4 1 1.000000 1.000000 1.000000
v 17 5 0 1.000000 1.000000 1.000000
v 17 5 1 1.000000 1.000000 1.000000
v 18 4 0 1.000000 1.000000 1.000000
v 18 4 1 1.000000 1.000000 1.000000
v 18 5 0 1.000000 1.000000 1.000000
v 18 5 1 1.000000 1.000000 1.000000
v 17 6 0 1.000000 1.000000 1.000000
v 17 6 1 1.000000 1.000000 1.000000
v 17 7 0 1.000000 1.000000 1.000000
v 17 7 1 1.000000 1.000000 1.000000
v 18 6 0 1.000000 1.000000 1.000000
v 18 6 1 1.000000 1.000000 1.000000
v 18 7 0 1.000000 1.000000 1.000000
v 18 7 1 1.000000 1.000000 1.000000
v 19 6 0 1.000000 1.000000 1.000000
v 19 6 1 1.000000 1.000000 1.000000
v 19 7 0 1.000000 1.000000 1.000000
v 19 7 1 1.000000 1.000000 1.000000
v 17 8 0 1.000000 1.000000 1.000000
v 17 8 1 1.000000 1.000000 1.000000
v 18 8 0 1.000000 1.000000 1.000000
v 18 8 1 1.000000 1.000000 1.000000
v 19 8 0 1.000000 1.000000 1.000000
v 19 8 1 1.000000 1.000000 1.000000
v 17 9 0 1.000000 1.000000 1.000000
v 17 9 1 1.000000 1.000000 1.000000
vn 0 -1 0
vn 0 0 -1
vn 0 0 1
vn -1 0 0
vn 0 1 0
vn 1 0 0
f 1//1 2//1 3//1 4//1
f 1//2 5//2 6//2 2//2
f 3//3 7//3 8//3 4//3
f 1//4 4//4 8//4 5//4
f 2//1 9//1 10//1 3//1
f 11//5 6//5 7//5 12//5
f 2//2 6//2 11//2 9//2
f 10//3 12//3 7//3 3//3
f 9//6 11//6 12//6 10//6
f 5//2 13//2 14//2 6//2
f 7//3 15//3 16//3 8//3
f 6//6 14//6 15//6 7//6
f 5//4 8//4 16//4 13//4
f 13//2 17//2 18//2 14//2
f 15//3 19//3 20//3 16//3
f 14//6 18//6 19//6 15//6
f 13//4 16//4 20//4 17//4
f 21//1 22//1 23//1 24//1
f 21//2 25//2 26//2 22//2
f 23//3 27//3 28//3 24//3
f 21//4 24//4 28//4 25//4
f 22//1 29//1 30//1 23//1
f 31//5 26//5 27//5 32//5
f 22//2 26//2 31//2 29//2
f 30//3 32//3 27//3 23//3
f 29//6 31//6 32//6 30//6
f 33//1 17//1 20//1 34//1
f 33//2 35//2 36//2 17//2
f 20//3 37//3 38//3 34//3
f 33//4 34//4 38//4 35//4
f 17//2 36//2 39//2 18//2
f 19//3 40//3 37//3 20//3
f 18//1 41//1 42//1 19//1
f 18//2 39//2 43//2 41//2
f 42//3 44//3 40//3 19//3
f 41//1 25//1 28//1 42//1
f 41//2 43//2 45//2 25//2
f 28//3 46//3 44//3 42//3
f 25//2 45//2 47//2 26//2
f 27//3 48//3 46//3 28//3
f 26//6 47//6 48//6 27//6
f 31//1 49//1 50//1 32//1
f 31//2 51//2 52//2 49//2
f 50//3 53//3 54//3 32//3
f 31//4 32//4 54//4 51//4
f 49//1 55//1 56//1 50//1
f 49//2 52//2 57//2 55//2
f 56//3 58//3 53//3 50//3
f 55//6 57//6 58//6 56//6
f 59//1 35//1 38//1 60//1
f 59//2 61//2 62//2 35//2
f 38//3 63//3 64//3 60//3
f 59//4 60//4 64//4 61//4
f 35//2 62//2 65//2 36//2
f 37//3 66//3 63//3 38//3
f 36//2 65//2 67//2 39//2
f 40//3 68//3 66//3 37//3
f 39//2 67//2 69//2 43//2
f 44//3 70//3 68//3 40//3
f 43//2 69//2 71//2 45//2
f 46//3 72//3 70//3 44//3
f 45//2 71//2 73//2 47//2
f 48//3 74//3 72//3 46//3
f 47//1 51//1 54//1 48//1
f 47//2 73//2 75//2 51//2
f 54//3 76//3 74//3 48//3
f 51//2 75//2 77//2 52//2
f 53//3 78//3 76//3 54//3
f 52//2 77//2 79//2 57//2
f 58//3 80//3 78//3 53//3
f 57//1 81//1 82//1 58//1
f 57//2 79//2 83//2 81//2
f 82//3 84//3 80//3 58//3
f 81//6 83//6 84//6 82//6
f 85//1 86//1 87//1 88//1
f 85//2 89//2 90//2 86//2
f 87//3 91//3 92//3 88//3
f 85//4 88//4 92//4 89//4
f 86//1 93//1 94//1 87//1
f 86//2 90//2 95//2 93//2
f 94//3 96//3 91//3 87//3
f 93//1 97//1 98//1 94//1
f 93//2 95//2 99//2 97//2
f 98//3 100//3 96//3 94//3
f 97//1 101//1 102//1 98//1
f 103//5 99//5 100//5 104//5
f 97//2 99//2 103//2 101//2
f 102//3 104//3 100//3 98//3
f 105//1 61//1 64//1 106//1
f 105//2 107//2 108//2 61//2
f 64//3 109//3 110//3 106//3
f 105//4 106//4 110//4 107//4
f 61//2 108//2 111//2 62//2
f 63//3 112//3 109//3 64//3
f 62//2 111//2 113//2 65//2
f 66//3 114//3 112//3 63//3
f 65//2 113//2 115//2 67//2
f 68//3 116//3 114//3 66//3
f 67//2 115//2 117//2 69//2
f 70//3 118//3 116//3 68//3
f 69//2 117//2 119//2 71//2
f 72//3 120//3 118//3 70//3
f 71//2 119//2 121//2 73//2
f 74//3 122//3 120//3 72//3
f 73//2 121//2 123//2 75//2
f 76//3 124//3 122//3 74//3
f 75//2 123//2 125//2 77//2
f 78//3 126//3 124//3 76//3
f 77//2 125//2 127//2 79//2
f 80//3 128//3 126//3 78//3
f 79//2 127//2 129//2 83//2
f 84//3 130//3 128//3 80//3
f 83//1 89//1 92//1 84//1
f 83//2 129//2 131//2 89//2
f 92//3 132//3 130//3 84//3
f 89//2 131//2 133//2 90//2
f 91//3 134//3 132//3 92//3
f 90//2 133//2 135//2 95//2
f 96//3 136//3 134//3 91//3
f 95//2 135//2 137//2 99//2
f 100//3 138//3 136//3 96//3
f 99//6 137//6 138//6 100//6
f 107//2 139//2 140//2 108//2
f 109//3 141//3 142//3 110//3
f 107//4 110//4 142//4 139//4
f 108//2 140//2 143//2 111//2
f 112//3 144//3 141//3 109//3
f 145//5 143//5 144//5 146//5
f 111//2 143//2 145//2 113//2
f 114//3 146//3 144//3 112//3
f 147//5 145//5 146//5 148//5
f 113//2 145//2 147//2 115//2
f 116//3 148//3 146//3 114//3
f 115//2 147//2 149//2 117//2
f 118//3 150//3 148//3 116//3
f 117//2 149//2 151//2 119//2
f 120//3 152//3 150//3 118//3
f 119//2 151//2 153//2 121//2
f 122//3 154//3 152//3 120//3
f 121//2 153//2 155//2 123//2
f 124//3 156//3 154//3 122//3
f 123//2 155//2 157//2 125//2
f 126//3 158//3 156//3 124//3
f 125//2 157//2 159//2 127//2
f 128//3 160//3 158//3 126//3
f 127//2 159//2 161//2 129//2
f 130//3 162//3 160//3 128//3
f 163//5 161//5 162//5 164//5
f 129//2 161//2 163//2 131//2
f 132//3 164//3 162//3 130//3
f 131//2 163//2 165//2 133//2
f 134//3 166//3 164//3 132//3
f 133//2 165//2 167//2 135//2
f 136//3 168//3 166//3 134//3
f 169//5 167//5 168//5 170//5
f 135//2 167//2 169//2 137//2
f 138//3 170//3 168//3 136//3
f 137//1 171//1 172//1 138//1
f 137//2 169//2 173//2 171//2
f 172//3 174//3 170//3 138//3
f 139//2 175//2 176//2 140//2
f 141//3 177//3 178//3 142//3
f 139//4 142//4 178//4 175//4
f 179//5 176//5 177//5 180//5
f 140//2 176//2 179//2 143//2
f 144//3 180//3 177//3 141//3
f 143//6 179//6 180//6 144//6
f 181//5 182//5 183//5 184//5
f 147//2 182//2 181//2 149//2
f 150//3 184//3 183//3 148//3
f 147//4 148//4 183//4 182//4
f 185//5 181//5 184//5 186//5
f 149//2 181//2 185//2 151//2
f 152//3 186//3 184//3 150//3
f 187//5 185//5 186//5 188//5
f 151//2 185//2 187//2 153//2
f 154//3 188//3 186//3 152//3
f 189//5 187//5 188//5 190//5
f 153//2 187//2 189//2 155//2
f 156//3 190//3 188//3 154//3
f 191//5 189//5 190//5 192//5
f 155//2 189//2 191//2 157//2
f 158//3 192//3 190//3 156//3
f 193//5 191//5 192//5 194//5
f 157//2 191//2 193//2 159//2
f 160//3 194//3 192//3 158//3
f 195//5 193//5 194//5 196//5
f 159//2 193//2 195//2 161//2
f 162//3 196//3 194//3 160//3
f 161//6 195//6 196//6 162//6
f 197//5 198//5 199//5 200//5
f 163//2 198//2 197//2 165//2
f 166//3 200//3 199//3 164//3
f 163//4 164//4 199//4 198//4
f 165//2 197//2 201//2 167//2
f 168//3 202//3 200//3 166//3
f 167//6 201//6 202//6 168//6
f 169//2 203//2 204//2 173//2
f 174//3 205//3 206//3 170//3
f 169//4 170//4 206//4 203//4
f 207//5 208//5 209//5 210//5
f 175//2 208//2 207//2 176//2
f 177//3 210//3 209//3 178//3
f 176//6 207//6 210//6 177//6
f 175//4 178//4 209//4 208//4
f 211//5 212//5 213//5 214//5
f 197//2 212//2 211//2 201//2
f 202//3 214//3 213//3 200//3
f 197//4 200//4 213//4 212//4
f 201//1 203//1 206//1 202//1
f 215//5 211//5 214//5 216//5
f 201//2 211//2 215//2 203//2
f 206//3 216//3 214//3 202//3
f 217//5 215//5 216//5 218//5
f 203//2 215//2 217//2 204//2
f 205//3 218//3 216//3 206//3
f 101//1 219//1 220//1 102//1
f 221//5 103//5 104//5 222//5
f 101//2 103//2 221//2 219//2
f 220//3 222//3 104//3 102//3
f 219//1 223//1 224//1 220//1
f 225//5 221//5 222//5 226//5
f 219//2 221//2 225//2 223//2
f 224//3 226//3 222//3 220//3
f 223//6 225//6 226//6 224//6
f 171//1 227//1 228//1 172//1
f 171//2 173//2 229//2 227//2
f 228//3 230//3 174//3 172//3
f 227//1 231//1 232//1 228//1
f 227//2 229//2 233//2 231//2
f 232//3 234//3 230//3 228//3
f 231//1 235//1 236//1 232//1
f 231//2 233//2 237//2 235//2
f 236//3 238//3 234//3 232//3
f 235//6 237//6 238//6 236//6
f 173//2 204//2 239//2 229//2
f 230//3 240//3 205//3 174//3
f 241//5 239//5 240//5 242//5
f 229//2 239//2 241//2 233//2
f 234//3 242//3 240//3 230//3
f 243//5 241//5 242//5 244//5
f 233//2 241//2 243//2 237//2
f 238//3 244//3 242//3 234//3
f 237//6 243//6 244//6 238//6
f 245//5 217//5 218//5 246//5
f 204//2 217//2 245//2 239//2
f 240//3 246//3 218//3 205//3
f 239//6 245//6 246//6 240//6
