# Goxel 0.10.0
v 6 0 0 1.000000 1.000000 1.000000
v 7 0 0 1.000000 1.000000 1.000000
v 7 0 1 1.000000 1.000000 1.000000
v 6 0 1 1.000000 1.000000 1.000000
v 6 1 0 1.000000 1.000000 1.000000
v 7 1 0 1.000000 1.000000 1.000000
v 7 1 1 1.000000 1.000000 1.000000
v 6 1 1 1.000000 1.000000 1.000000
v 8 0 0 1.000000 1.000000 1.000000
v 8 0 1 1.000000 1.000000 1.000000
v 8 1 0 1.000000 1.000000 1.000000
v 8 1 1 1.000000 1.000000 1.000000
v 6 2 0 1.000000 1.000000 1.000000
v 7 2 0 1.000000 1.000000 1.000000
v 7 2 1 1.000000 1.000000 1.000000
v 6 2 1 1.000000 1.000000 1.000000
v 3 2 0 1.000000 1.000000 1.000000
v 4 2 0 1.000000 1.000000 1.000000
v 4 2 1 1.000000 1.000000 1.000000
v 3 2 1 1.000000 1.000000 1.000000
v 3 3 0 1.000000 1.000000 1.000000
v 4 3 0 1.000000 1.000000 1.000000
v 4 3 1 1.000000 1.000000 1.000000
v 3 3 1 1.000000 1.000000 1.000000
v 5 2 0 1.000000 1.000000 1.000000
v 5 2 1 1.000000 1.000000 1.000000
v 5 3 0 1.000000 1.000000 1.000000
v 5 3 1 1.000000 1.000000 1.000000
v 6 3 0 1.000000 1.000000 1.000000
v 7 3 0 1.000000 1.000000 1.000000
v 7 3 1 1.000000 1.000000 1.000000
v 6 3 1 1.000000 1.000000 1.000000
v 3 4 0 1.000000 1.000000 1.000000
v 4 4 0 1.000000 1.000000 1.000000
v 4 4 1 1.000000 1.000000 1.000000
v 3 4 1 1.000000 1.000000 1.000000
v 5 4 0 1.000000 1.000000 1.000000
v 5 4 1 1.000000 1.000000 1.000000
v 6 4 0 1.000000 1.000000 1.000000
v 6 4 1 1.000000 1.000000 1.000000
v 7 4 0 1.000000 1.000000 1.000000
v 7 4 1 1.000000 1.000000 1.000000
v 2 4 0 1.000000 1.000000 1.000000
v 2 4 1 1.000000 1.000000 1.000000
v 2 5 0 1.000000 1.000000 1.000000
v 3 5 0 1.000000 1.000000 1.000000
v 3 5 1 1.000000 1.000000 1.000000
v 2 5 1 1.000000 1.000000 1.000000
v 4 5 0 1.000000 1.000000 1.000000
v 4 5 1 1.000000 1.000000 1.000000
v 5 5 0 1.000000 1.000000 1.000000
v 5 5 1 1.000000 1.000000 1.000000
v 6 5 0 1.000000 1.000000 1.000000
v 6 5 1 1.000000 1.000000 1.000000
v 7 5 0 1.000000 1.000000 1.000000
v 7 5 1 1.000000 1.000000 1.000000
v 8 4 0 1.000000 1.000000 1.000000
v 8 4 1 1.000000 1.000000 1.000000
v 8 5 0 1.000000 1.000000 1.000000
v 8 5 1 1.000000 1.000000 1.000000
v 1 5 0 1.000000 1.000000 1.000000
v 1 5 1 1.000000 1.000000 1.000000
v 1 6 0 1.000000 1.000000 1.000000
v 2 6 0 1.000000 1.000000 1.000000
v 2 6 1 1.000000 1.000000 1.000000
v 1 6 1 1.000000 1.000000 1.000000
v 3 6 0 1.000000 1.000000 1.000000
v 3 6 1 1.000000 1.000000 1.000000
v 4 6 0 1.000000 1.000000 1.000000
v 4 6 1 1.000000 1.000000 1.000000
v 5 6 0 1.000000 1.000000 1.000000
v 5 6 1 1.000000 1.000000 1.000000
v 6 6 0 1.000000 1.000000 1.000000
v 6 6 1 1.000000 1.000000 1.000000
v 7 6 0 1.000000 1.000000 1.000000
v 7 6 1 1.000000 1.000000 1.000000
v 8 6 0 1.000000 1.000000 1.000000
v 8 6 1 1.000000 1.000000 1.000000
v 9 5 0 1.000000 1.000000 1.000000
v 9 5 1 1.000000 1.000000 1.000000
v 9 6 0 1.000000 1.000000 1.000000
v 9 6 1 1.000000 1.000000 1.000000
v 0 6 0 1.000000 1.000000 1.000000
v 0 6 1 1.000000 1.000000 1.000000
v 0 7 0 1.000000 1.000000 1.000000
v 1 7 0 1.000000 1.000000 1.000000
v 1 7 1 1.000000 1.000000 1.000000
v 0 7 1 1.000000 1.000000 1.000000
v 2 7 0 1.000000 1.000000 1.000000
v 2 7 1 1.000000 1.000000 1.000000
v 3 7 0 1.000000 1.000000 1.000000
v 3 7 1 1.000000 1.000000 1.000000
v 4 7 0 1.000000 1.000000 1.000000
v 4 7 1 1.000000 1.000000 1.000000
v 5 7 0 1.000000 1.000000 1.000000
v 5 7 1 1.000000 1.000000 1.000000
v 6 7 0 1.000000 1.000000 1.000000
v 6 7 1 1.000000 1.000000 1.000000
v 7 7 0 1.000000 1.000000 1.000000
v 7 7 1 1.000000 1.000000 1.000000
v 8 7 0 1.000000 1.000000 1.000000
v 8 7 1 1.000000 1.000000 1.000000
v 9 7 0 1.000000 1.000000 1.000000
v 9 7 1 1.000000 1.000000 1.000000
v 0 8 0 1.000000 1.000000 1.000000
v 1 8 0 1.000000 1.000000 1.000000
v 1 8 1 1.000000 1.000000 1.000000
v 0 8 1 1.000000 1.000000 1.000000
v 2 8 0 1.000000 1.000000 1.000000
v 2 8 1 1.000000 1.000000 1.000000
v 3 8 0 1.000000 1.000000 1.000000
v 3 8 1 1.000000 1.000000 1.000000
v 4 8 0 1.000000 1.000000 1.000000
v 4 8 1 1.000000 1.000000 1.000000
v 5 8 0 1.000000 1.000000 1.000000
v 5 8 1 1.000000 1.000000 1.000000
v 6 8 0 1.000000 1.000000 1.000000
v 6 8 1 1.000000 1.000000 1.000000
v 7 8 0 1.000000 1.000000 1.000000
v 7 8 1 1.000000 1.000000 1.000000
v 8 8 0 1.000000 1.000000 1.000000
v 8 8 1 1.000000 1.000000 1.000000
v 9 8 0 1.000000 1.000000 1.000000
v 9 8 1 1.000000 1.000000 1.000000
v 10 7 0 1.000000 1.000000 1.000000
v 11 7 0 1.000000 1.000000 1.000000
v 11 7 1 1.000000 1.000000 1.000000
v 10 7 1 1.000000 1.000000 1.000000
v 10 8 0 1.000000 1.000000 1.000000
v 11 8 0 1.000000 1.000000 1.000000
v 11 8 1 1.000000 1.000000 1.000000
v 10 8 1 1.000000 1.000000 1.000000
v 0 9 0 1.000000 1.000000 1.000000
v 1 9 0 1.000000 1.000000 1.000000
v 1 9 1 1.000000 1.000000 1.000000
v 0 9 1 1.000000 1.000000 1.000000
v 2 9 0 1.000000 1.000000 1.000000
v 2 9 1 1.000000 1.000000 1.000000
v 5 9 0 1.000000 1.000000 1.000000
v 4 9 0 1.000000 1.000000 1.000000
v 4 9 1 1.000000 1.000000 1.000000
v 5 9 1 1.000000 1.000000 1.000000
v 6 9 0 1.000000 1.000000 1.000000
v 6 9 1 1.000000 1.000000 1.000000
v 7 9 0 1.000000 1.000000 1.000000
v 7 9 1 1.000000 1.000000 1.000000
v 8 9 0 1.000000 1.000000 1.000000
v 8 9 1 1.000000 1.000000 1.000000
v 9 9 0 1.000000 1.000000 1.000000
v 9 9 1 1.000000 1.000000 1.000000
v 10 9 0 1.000000 1.000000 1.000000
v 10 9 1 1.000000 1.000000 1.000000
v 11 9 0 1.000000 1.000000 1.000000
v 11 9 1 1.000000 1.000000 1.000000
v 1 10 0 1.000000 1.000000 1.000000
v 0 10 0 1.000000 1.000000 1.000000
v 0 10 1 1.000000 1.000000 1.000000
v 1 10 1 1.000000 1.000000 1.000000
v 6 10 0 1.000000 1.000000 1.000000
v 5 10 0 1.000000 1.000000 1.000000
v 5 10 1 1.000000 1.000000 1.000000
v 6 10 1 1.000000 1.000000 1.000000
v 7 10 0 1.000000 1.000000 1.000000
v 7 10 1 1.000000 1.000000 1.000000
v 8 10 0 1.000000 1.000000 1.000000
v 8 10 1 1.000000 1.000000 1.000000
v 9 10 0 1.000000 1.000000 1.000000
v 9 10 1 1.000000 1.000000 1.000000
v 6 11 0 1.000000 1.000000 1.000000
v 7 11 0 1.000000 1.000000 1.000000
v 7 11 1 1.000000 1.000000 1.000000
v 6 11 1 1.000000 1.000000 1.000000
v 8 11 0 1.000000 1.000000 1.000000
v 8 11 1 1.000000 1.000000 1.000000
v 9 11 0 1.000000 1.000000 1.000000
v 9 11 1 1.000000 1.000000 1.000000
v 10 10 0 1.000000 1.000000 1.000000
v 10 10 1 1.000000 1.000000 1.000000
v 10 11 0 1.000000 1.000000 1.000000
v 10 11 1 1.000000 1.000000 1.000000
v 11 10 0 1.000000 1.000000 1.000000
v 11 10 1 1.000000 1.000000 1.000000
v 11 11 0 1.000000 1.000000 1.000000
v 11 11 1 1.000000 1.000000 1.000000
v 12 10 0 1.000000 1.000000 1.000000
v 12 10 1 1.000000 1.000000 1.000000
v 12 11 0 1.000000 1.000000 1.000000
v 12 11 1 1.000000 1.000000 1.000000
v 13 10 0 1.000000 1.000000 1.000000
v 13 10 1 1.000000 1.000000 1.000000
v 13 11 0 1.000000 1.000000 1.000000
v 13 11 1 1.000000 1.000000 1.000000
v 6 12 0 1.000000 1.000000 1.000000
v 7 12 0 1.000000 1.000000 1.000000
v 7 12 1 1.000000 1.000000 1.000000
v 6 12 1 1.000000 1.000000 1.000000
v 8 12 0 1.000000 1.000000 1.000000
v 8 12 1 1.000000 1.000000 1.000000
v 9 12 0 1.000000 1.000000 1.000000
v 9 12 1 1.000000 1.000000 1.000000
v 10 12 0 1.000000 1.000000 1.000000
v 10 12 1 1.000000 1.000000 1.000000
v 11 12 0 1.000000 1.000000 1.000000
v 11 12 1 1.000000 1.000000 1.000000
v 6 13 0 1.000000 1.000000 1.000000
v 7 13 0 1.000000 1.000000 1.000000
v 7 13 1 1.000000 1.000000 1.000000
v 6 13 1 1.000000 1.000000 1.000000
v 8 13 0 1.000000 1.000000 1.000000
v 8 13 1 1.000000 1.000000 1.000000
v 9 13 0 1.000000 1.000000 1.000000
v 9 13 1 1.000000 1.000000 1.000000
v 10 13 0 1.000000 1.000000 1.000000
v 10 13 1 1.000000 1.000000 1.000000
v 11 13 0 1.000000 1.000000 1.000000
v 11 13 1 1.000000 1.000000 1.000000
v 12 12 0 1.000000 1.000000 1.000000
v 12 12 1 1.000000 1.000000 1.000000
v 12 13 0 1.000000 1.000000 1.000000
v 12 13 1 1.000000 1.000000 1.000000
v 13 12 0 1.000000 1.000000 1.000000
v 13 12 1 1.000000 1.000000 1.000000
v 13 13 0 1.000000 1.000000 1.000000
v 13 13 1 1.000000 1.000000 1.000000
v 14 12 0 1.000000 1.000000 1.000000
v 14 12 1 1.000000 1.000000 1.000000
v 14 13 0 1.000000 1.000000 1.000000
v 14 13 1 1.000000 1.000000 1.000000
v 7 14 0 1.000000 1.000000 1.000000
v 6 14 0 1.000000 1.000000 1.000000
v 6 14 1 1.000000 1.000000 1.000000
v 7 14 1 1.000000 1.000000 1.000000
v 8 14 0 1.000000 1.000000 1.000000
v 8 14 1 1.000000 1.000000 1.000000
v 9 14 0 1.000000 1.000000 1.000000
v 10 14 0 1.000000 1.000000 1.000000
v 10 14 1 1.000000 1.000000 1.000000
v 9 14 1 1.000000 1.000000 1.000000
v 11 14 0 1.000000 1.000000 1.000000
v 11 14 1 1.000000 1.000000 1.000000
v 12 14 0 1.000000 1.000000 1.000000
v 12 14 1 1.000000 1.000000 1.000000
v 13 14 0 1.000000 1.000000 1.000000
v 13 14 1 1.000000 1.000000 1.000000
v 14 14 0 1.000000 1.000000 1.000000
v 14 14 1 1.000000 1.000000 1.000000
v 8 15 0 1.000000 1.000000 1.000000
v 7 15 0 1.000000 1.000000 1.000000
v 7 15 1 1.000000 1.000000 1.000000
v 8 15 1 1.000000 1.000000 1.000000
v 9 15 0 1.000000 1.000000 1.000000
v 9 15 1 1.000000 1.000000 1.000000
v 10 15 0 1.000000 1.000000 1.000000
v 10 15 1 1.000000 1.000000 1.000000
v 11 15 0 1.000000 1.000000 1.000000
v 11 15 1 1.000000 1.000000 1.000000
v 12 15 0 1.000000 1.000000 1.000000
v 12 15 1 1.000000 1.000000 1.000000
v 13 15 0 1.000000 1.000000 1.000000
v 13 15 1 1.000000 1.000000 1.000000
vn 0 -1 0
vn 0 0 -1
vn 0 0 1
vn -1 0 0
vn 0 1 0
vn 1 0 0
f 1//1 2//1 3//1 4//1
f 1//2 5//2 6//2 2//2
f 3//3 7//3 8//3 4//3
f 1//4 4//4 8//4 5//4
f 2//1 9//1 10//1 3//1
f 11//5 6//5 7//5 12//5
f 2//2 6//2 11//2 9//2
f 10//3 12//3 7//3 3//3
f 9//6 11//6 12//6 10//6
f 5//2 13//2 14//2 6//2
f 7//3 15//3 16//3 8//3
f 6//6 14//6 15//6 7//6
f 5//4 8//4 16//4 13//4
f 17//1 18//1 19//1 20//1
f 17//2 21//2 22//2 18//2
f 19//3 23//3 24//3 20//3
f 17//4 20//4 24//4 21//4
f 18//1 25//1 26//1 19//1
f 18//2 22//2 27//2 25//2
f 26//3 28//3 23//3 19//3
f 25//6 27//6 28//6 26//6
f 13//2 29//2 30//2 14//2
f 15//3 31//3 32//3 16//3
f 14//6 30//6 31//6 15//6
f 13//4 16//4 32//4 29//4
f 21//2 33//2 34//2 22//2
f 23//3 35//3 36//3 24//3
f 21//4 24//4 36//4 33//4
f 22//2 34//2 37//2 27//2
f 28//3 38//3 35//3 23//3
f 27//1 29//1 32//1 28//1
f 27//2 37//2 39//2 29//2
f 32//3 40//3 38//3 28//3
f 29//2 39//2 41//2 30//2
f 31//3 42//3 40//3 32//3
f 30//6 41//6 42//6 31//6
f 43//1 33//1 36//1 44//1
f 43//2 45//2 46//2 33//2
f 36//3 47//3 48//3 44//3
f 43//4 44//4 48//4 45//4
f 33//2 46//2 49//2 34//2
f 35//3 50//3 47//3 36//3
f 34//2 49//2 51//2 37//2
f 38//3 52//3 50//3 35//3
f 37//2 51//2 53//2 39//2
f 40//3 54//3 52//3 38//3
f 39//2 53//2 55//2 41//2
f 42//3 56//3 54//3 40//3
f 41//1 57//1 58//1 42//1
f 41//2 55//2 59//2 57//2
f 58//3 60//3 56//3 42//3
f 57//6 59//6 60//6 58//6
f 61//1 45//1 48//1 62//1
f 61//2 63//2 64//2 45//2
f 48//3 65//3 66//3 62//3
f 61//4 62//4 66//4 63//4
f 45//2 64//2 67//2 46//2
f 47//3 68//3 65//3 48//3
f 46//2 67//2 69//2 49//2
f 50//3 70//3 68//3 47//3
f 49//2 69//2 71//2 51//2
f 52//3 72//3 70//3 50//3
f 51//2 71//2 73//2 53//2
f 54//3 74//3 72//3 52//3
f 53//2 73//2 75//2 55//2
f 56//3 76//3 74//3 54//3
f 55//2 75//2 77//2 59//2
f 60//3 78//3 76//3 56//3
f 59//1 79//1 80//1 60//1
f 59//2 77//2 81//2 79//2
f 80//3 82//3 78//3 60//3
f 79//6 81//6 82//6 80//6
f 83//1 63//1 66//1 84//1
f 83//2 85//2 86//2 63//2
f 66//3 87//3 88//3 84//3
f 83//4 84//4 88//4 85//4
f 63//2 86//2 89//2 64//2
f 65//3 90//3 87//3 66//3
f 64//2 89//2 91//2 67//2
f 68//3 92//3 90//3 65//3
f 67//2 91//2 93//2 69//2
f 70//3 94//3 92//3 68//3
f 69//2 93//2 95//2 71//2
f 72//3 96//3 94//3 70//3
f 71//2 95//2 97//2 73//2
f 74//3 98//3 96//3 72//3
f 73//2 97//2 99//2 75//2
f 76//3 100//3 98//3 74//3
f 75//2 99//2 101//2 77//2
f 78//3 102//3 100//3 76//3
f 77//2 101//2 103//2 81//2
f 82//3 104//3 102//3 78//3
f 81//6 103//6 104//6 82//6
f 85//2 105//2 106//2 86//2
f 87//3 107//3 108//3 88//3
f 85//4 88//4 108//4 105//4
f 86//2 106//2 109//2 89//2
f 90//3 110//3 107//3 87//3
f 111//5 109//5 110//5 112//5
f 89//2 109//2 111//2 91//2
f 92//3 112//3 110//3 90//3
f 113//5 111//5 112//5 114//5
f 91//2 111//2 113//2 93//2
f 94//3 114//3 112//3 92//3
f 93//2 113//2 115//2 95//2
f 96//3 116//3 114//3 94//3
f 95//2 115//2 117//2 97//2
f 98//3 118//3 116//3 96//3
f 97//2 117//2 119//2 99//2
f 100//3 120//3 118//3 98//3
f 99//2 119//2 121//2 101//2
f 102//3 122//3 120//3 100//3
f 101//2 121//2 123//2 103//2
f 104//3 124//3 122//3 102//3
f 103//6 123//6 124//6 104//6
f 125//1 126//1 127//1 128//1
f 125//2 129//2 130//2 126//2
f 127//3 131//3 132//3 128//3
f 126//6 130//6 131//6 127//6
f 125//4 128//4 132//4 129//4
f 105//2 133//2 134//2 106//2
f 107//3 135//3 136//3 108//3
f 105//4 108//4 136//4 133//4
f 137//5 134//5 135//5 138//5
f 106//2 134//2 137//2 109//2
f 110//3 138//3 135//3 107//3
f 109//6 137//6 138//6 110//6
f 139//5 140//5 141//5 142//5
f 113//2 140//2 139//2 115//2
f 116//3 142//3 141//3 114//3
f 113//4 114//4 141//4 140//4
f 115//2 139//2 143//2 117//2
f 118//3 144//3 142//3 116//3
f 117//2 143//2 145//2 119//2
f 120//3 146//3 144//3 118//3
f 119//2 145//2 147//2 121//2
f 122//3 148//3 146//3 120//3
f 121//2 147//2 149//2 123//2
f 124//3 150//3 148//3 122//3
f 123//1 129//1 132//1 124//1
f 151//5 149//5 150//5 152//5
f 123//2 149//2 151//2 129//2
f 132//3 152//3 150//3 124//3
f 153//5 151//5 152//5 154//5
f 129//2 151//2 153//2 130//2
f 131//3 154//3 152//3 132//3
f 130//6 153//6 154//6 131//6
f 155//5 156//5 157//5 158//5
f 133//2 156//2 155//2 134//2
f 135//3 158//3 157//3 136//3
f 134//6 155//6 158//6 135//6
f 133//4 136//4 157//4 156//4
f 159//5 160//5 161//5 162//5
f 139//2 160//2 159//2 143//2
f 144//3 162//3 161//3 142//3
f 139//4 142//4 161//4 160//4
f 143//2 159//2 163//2 145//2
f 146//3 164//3 162//3 144//3
f 145//2 163//2 165//2 147//2
f 148//3 166//3 164//3 146//3
f 147//2 165//2 167//2 149//2
f 150//3 168//3 166//3 148//3
f 149//6 167//6 168//6 150//6
f 159//2 169//2 170//2 163//2
f 164//3 171//3 172//3 162//3
f 159//4 162//4 172//4 169//4
f 163//2 170//2 173//2 165//2
f 166//3 174//3 171//3 164//3
f 165//2 173//2 175//2 167//2
f 168//3 176//3 174//3 166//3
f 167//1 177//1 178//1 168//1
f 167//2 175//2 179//2 177//2
f 178//3 180//3 176//3 168//3
f 177//1 181//1 182//1 178//1
f 177//2 179//2 183//2 181//2
f 182//3 184//3 180//3 178//3
f 181//1 185//1 186//1 182//1
f 187//5 183//5 184//5 188//5
f 181//2 183//2 187//2 185//2
f 186//3 188//3 184//3 182//3
f 185//1 189//1 190//1 186//1
f 191//5 187//5 188//5 192//5
f 185//2 187//2 191//2 189//2
f 190//3 192//3 188//3 186//3
f 189//6 191//6 192//6 190//6
f 169//2 193//2 194//2 170//2
f 171//3 195//3 196//3 172//3
f 169//4 172//4 196//4 193//4
f 170//2 194//2 197//2 173//2
f 174//3 198//3 195//3 171//3
f 173//2 197//2 199//2 175//2
f 176//3 200//3 198//3 174//3
f 175//2 199//2 201//2 179//2
f 180//3 202//3 200//3 176//3
f 179//2 201//2 203//2 183//2
f 184//3 204//3 202//3 180//3
f 183//6 203//6 204//6 184//6
f 193//2 205//2 206//2 194//2
f 195//3 207//3 208//3 196//3
f 193//4 196//4 208//4 205//4
f 194//2 206//2 209//2 197//2
f 198//3 210//3 207//3 195//3
f 211//5 209//5 210//5 212//5
f 197//2 209//2 211//2 199//2
f 200//3 212//3 210//3 198//3
f 199//2 211//2 213//2 201//2
f 202//3 214//3 212//3 200//3
f 201//2 213//2 215//2 203//2
f 204//3 216//3 214//3 202//3
f 203//1 217//1 218//1 204//1
f 203//2 215//2 219//2 217//2
f 218//3 220//3 216//3 204//3
f 217//1 221//1 222//1 218//1
f 217//2 219//2 223//2 221//2
f 222//3 224//3 220//3 218//3
f 221//1 225//1 226//1 222//1
f 221//2 223//2 227//2 225//2
f 226//3 228//3 224//3 222//3
f 225//6 227//6 228//6 226//6
f 229//5 230//5 231//5 232//5
f 205//2 230//2 229//2 206//2
f 207//3 232//3 231//3 208//3
f 205//4 208//4 231//4 230//4
f 206//2 229//2 233//2 209//2
f 210//3 234//3 232//3 207//3
f 209//6 233//6 234//6 210//6
f 211//2 235//2 236//2 213//2
f 214//3 237//3 238//3 212//3
f 211//4 212//4 238//4 235//4
f 213//2 236//2 239//2 215//2
f 216//3 240//3 237//3 214//3
f 215//2 239//2 241//2 219//2
f 220//3 242//3 240//3 216//3
f 219//2 241//2 243//2 223//2
f 224//3 244//3 242//3 220//3
f 245//5 243//5 244//5 246//5
f 223//2 243//2 245//2 227//2
f 228//3 246//3 244//3 224//3
f 227//6 245//6 246//6 228//6
f 247//5 248//5 249//5 250//5
f 229//2 248//2 247//2 233//2
f 234//3 250//3 249//3 232//3
f 229//4 232//4 249//4 248//4
f 233//1 235//1 238//1 234//1
f 251//5 247//5 250//5 252//5
f 233//2 247//2 251//2 235//2
f 238//3 252//3 250//3 234//3
f 253//5 251//5 252//5 254//5
f 235//2 251//2 253//2 236//2
f 237//3 254//3 252//3 238//3
f 255//5 253//5 254//5 256//5
f 236//2 253//2 255//2 239//2
f 240//3 256//3 254//3 237//3
f 257//5 255//5 256//5 258//5
f 239//2 255//2 257//2 241//2
f 242//3 258//3 256//3 240//3
f 259//5 257//5 258//5 260//5
f 241//2 257//2 259//2 243//2
f 244//3 260//3 258//3 242//3
f 243//6 259//6 260//6 244//6
