# Goxel 0.10.0
v 3 0 0 1.000000 1.000000 1.000000
v 4 0 0 1.000000 1.000000 1.000000
v 4 0 1 1.000000 1.000000 1.000000
v 3 0 1 1.000000 1.000000 1.000000
v 3 1 0 1.000000 1.000000 1.000000
v 4 1 0 1.000000 1.000000 1.000000
v 4 1 1 1.000000 1.000000 1.000000
v 3 1 1 1.000000 1.000000 1.000000
v 5 0 0 1.000000 1.000000 1.000000
v 5 0 1 1.000000 1.000000 1.000000
v 5 1 0 1.000000 1.000000 1.000000
v 5 1 1 1.000000 1.000000 1.000000
v 3 2 0 1.000000 1.000000 1.000000
v 4 2 0 1.000000 1.000000 1.000000
v 4 2 1 1.000000 1.000000 1.000000
v 3 2 1 1.000000 1.000000 1.000000
v 3 3 0 1.000000 1.000000 1.000000
v 4 3 0 1.000000 1.000000 1.000000
v 4 3 1 1.000000 1.000000 1.000000
v 3 3 1 1.000000 1.000000 1.000000
v 6 2 0 1.000000 1.000000 1.000000
v 7 2 0 1.000000 1.000000 1.000000
v 7 2 1 1.000000 1.000000 1.000000
v 6 2 1 1.000000 1.000000 1.000000
v 6 3 0 1.000000 1.000000 1.000000
v 7 3 0 1.000000 1.000000 1.000000
v 7 3 1 1.000000 1.000000 1.000000
v 6 3 1 1.000000 1.000000 1.000000
v 8 2 0 1.000000 1.000000 1.000000
v 8 2 1 1.000000 1.000000 1.000000
v 8 3 0 1.000000 1.000000 1.000000
v 8 3 1 1.000000 1.000000 1.000000
v 3 4 0 1.000000 1.000000 1.000000
v 4 4 0 1.000000 1.000000 1.000000
v 4 4 1 1.000000 1.000000 1.000000
v 3 4 1 1.000000 1.000000 1.000000
v 5 3 0 1.000000 1.000000 1.000000
v 5 3 1 1.000000 1.000000 1.000000
v 5 4 0 1.000000 1.000000 1.000000
v 5 4 1 1.000000 1.000000 1.000000
v 6 4 0 1.000000 1.000000 1.000000
v 6 4 1 1.000000 1.000000 1.000000
v 7 4 0 1.000000 1.000000 1.000000
v 7 4 1 1.000000 1.000000 1.000000
v 2 4 0 1.000000 1.000000 1.000000
v 2 4 1 1.000000 1.000000 1.000000
v 2 5 0 1.000000 1.000000 1.000000
v 3 5 0 1.000000 1.000000 1.000000
v 3 5 1 1.000000 1.000000 1.000000
v 2 5 1 1.000000 1.000000 1.000000
v 4 5 0 1.000000 1.000000 1.000000
v 4 5 1 1.000000 1.000000 1.000000
v 5 5 0 1.000000 1.000000 1.000000
v 5 5 1 1.000000 1.000000 1.000000
v 6 5 0 1.000000 1.000000 1.000000
v 6 5 1 1.000000 1.000000 1.000000
v 7 5 0 1.000000 1.000000 1.000000
v 7 5 1 1.000000 1.000000 1.000000
v 8 4 0 1.000000 1.000000 1.000000
v 8 4 1 1.000000 1.000000 1.000000
v 8 5 0 1.000000 1.000000 1.000000
v 8 5 1 1.000000 1.000000 1.000000
v 1 5 0 1.000000 1.000000 1.000000
v 1 5 1 1.000000 1.000000 1.000000
v 1 6 0 1.000000 1.000000 1.000000
v 2 6 0 1.000000 1.000000 1.000000
v 2 6 1 1.000000 1.000000 1.000000
v 1 6 1 1.000000 1.000000 1.000000
v 3 6 0 1.000000 1.000000 1.000000
v 3 6 1 1.000000 1.000000 1.000000
v 4 6 0 1.000000 1.000000 1.000000
v 4 6 1 1.000000 1.000000 1.000000
v 5 6 0 1.000000 1.000000 1.000000
v 5 6 1 1.000000 1.000000 1.000000
v 6 6 0 1.000000 1.000000 1.000000
v 6 6 1 1.000000 1.000000 1.000000
v 7 6 0 1.000000 1.000000 1.000000
v 7 6 1 1.000000 1.000000 1.000000
v 8 6 0 1.000000 1.000000 1.000000
v 8 6 1 1.000000 1.000000 1.000000
v 9 5 0 1.000000 1.000000 1.000000
v 9 5 1 1.000000 1.000000 1.000000
v 9 6 0 1.000000 1.000000 1.000000
v 9 6 1 1.000000 1.000000 1.000000
v 0 6 0 1.000000 1.000000 1.000000
v 0 6 1 1.000000 1.000000 1.000000
v 0 7 0 1.000000 1.000000 1.000000
v 1 7 0 1.000000 1.000000 1.000000
v 1 7 1 1.000000 1.000000 1.000000
v 0 7 1 1.000000 1.000000 1.000000
v 2 7 0 1.000000 1.000000 1.000000
v 2 7 1 1.000000 1.000000 1.000000
v 3 7 0 1.000000 1.000000 1.000000
v 3 7 1 1.000000 1.000000 1.000000
v 4 7 0 1.000000 1.000000 1.000000
v 4 7 1 1.000000 1.000000 1.000000
v 5 7 0 1.000000 1.000000 1.000000
v 5 7 1 1.000000 1.000000 1.000000
v 6 7 0 1.000000 1.000000 1.000000
v 6 7 1 1.000000 1.000000 1.000000
v 7 7 0 1.000000 1.000000 1.000000
v 7 7 1 1.000000 1.000000 1.000000
v 8 7 0 1.000000 1.000000 1.000000
v 8 7 1 1.000000 1.000000 1.000000
v 9 7 0 1.000000 1.000000 1.000000
v 9 7 1 1.000000 1.000000 1.000000
v 0 8 0 1.000000 1.000000 1.000000
v 1 8 0 1.000000 1.000000 1.000000
v 1 8 1 1.000000 1.000000 1.000000
v 0 8 1 1.000000 1.000000 1.000000
v 2 8 0 1.000000 1.000000 1.000000
v 2 8 1 1.000000 1.000000 1.000000
v 3 8 0 1.000000 1.000000 1.000000
v 3 8 1 1.000000 1.000000 1.000000
v 4 8 0 1.000000 1.000000 1.000000
v 4 8 1 1.000000 1.000000 1.000000
v 5 8 0 1.000000 1.000000 1.000000
v 5 8 1 1.000000 1.000000 1.000000
v 6 8 0 1.000000 1.000000 1.000000
v 6 8 1 1.000000 1.000000 1.000000
v 7 8 0 1.000000 1.000000 1.000000
v 7 8 1 1.000000 1.000000 1.000000
v 8 8 0 1.000000 1.000000 1.000000
v 8 8 1 1.000000 1.000000 1.000000
v 9 8 0 1.000000 1.000000 1.000000
v 9 8 1 1.000000 1.000000 1.000000
v 10 7 0 1.000000 1.000000 1.000000
v 11 7 0 1.000000 1.000000 1.000000
v 11 7 1 1.000000 1.000000 1.000000
v 10 7 1 1.000000 1.000000 1.000000
v 10 8 0 1.000000 1.000000 1.000000
v 11 8 0 1.000000 1.000000 1.000000
v 11 8 1 1.000000 1.000000 1.000000
v 10 8 1 1.000000 1.000000 1.000000
v 0 9 0 1.000000 1.000000 1.000000
v 1 9 0 1.000000 1.000000 1.000000
v 1 9 1 1.000000 1.000000 1.000000
v 0 9 1 1.000000 1.000000 1.000000
v 2 9 0 1.000000 1.000000 1.000000
v 2 9 1 1.000000 1.000000 1.000000
v 5 9 0 1.000000 1.000000 1.000000
v 4 9 0 1.000000 1.000000 1.000000
v 4 9 1 1.000000 1.000000 1.000000
v 5 9 1 1.000000 1.000000 1.000000
v 6 9 0 1.000000 1.000000 1.000000
v 6 9 1 1.000000 1.000000 1.000000
v 7 9 0 1.000000 1.000000 1.000000
v 7 9 1 1.000000 1.000000 1.000000
v 8 9 0 1.000000 1.000000 1.000000
v 8 9 1 1.000000 1.000000 1.000000
v 9 9 0 1.000000 1.000000 1.000000
v 9 9 1 1.000000 1.000000 1.000000
v 10 9 0 1.000000 1.000000 1.000000
v 10 9 1 1.000000 1.000000 1.000000
v 11 9 0 1.000000 1.000000 1.000000
v 11 9 1 1.000000 1.000000 1.000000
v 1 10 0 1.000000 1.000000 1.000000
v 0 10 0 1.000000 1.000000 1.000000
v 0 10 1 1.000000 1.000000 1.000000
v 1 10 1 1.000000 1.000000 1.000000
v 6 10 0 1.000000 1.000000 1.000000
v 5 10 0 1.000000 1.000000 1.000000
v 5 10 1 1.000000 1.000000 1.000000
v 6 10 1 1.000000 1.000000 1.000000
v 7 10 0 1.000000 1.000000 1.000000
v 7 10 1 1.000000 1.000000 1.000000
v 8 10 0 1.000000 1.000000 1.000000
v 8 10 1 1.000000 1.000000 1.000000
v 9 10 0 1.000000 1.000000 1.000000
v 9 10 1 1.000000 1.000000 1.000000
v 6 11 0 1.000000 1.000000 1.000000
v 7 11 0 1.000000 1.000000 1.000000
v 7 11 1 1.000000 1.000000 1.000000
v 6 11 1 1.000000 1.000000 1.000000
v 8 11 0 1.000000 1.000000 1.000000
v 8 11 1 1.000000 1.000000 1.000000
v 9 11 0 1.000000 1.000000 1.000000
v 9 11 1 1.000000 1.000000 1.000000
v 10 10 0 1.000000 1.000000 1.000000
v 10 10 1 1.000000 1.000000 1.000000
v 10 11 0 1.000000 1.000000 1.000000
v 10 11 1 1.000000 1.000000 1.000000
v 11 10 0 1.000000 1.000000 1.000000
v 11 10 1 1.000000 1.000000 1.000000
v 11 11 0 1.000000 1.000000 1.000000
v 11 11 1 1.000000 1.000000 1.000000
v 12 10 0 1.000000 1.000000 1.000000
v 12 10 1 1.000000 1.000000 1.000000
v 12 11 0 1.000000 1.000000 1.000000
v 12 11 1 1.000000 1.000000 1.000000
v 13 10 0 1.000000 1.000000 1.000000
v 13 10 1 1.000000 1.000000 1.000000
v 13 11 0 1.000000 1.000000 1.000000
v 13 11 1 1.000000 1.000000 1.000000
v 6 12 0 1.000000 1.000000 1.000000
v 7 12 0 1.000000 1.000000 1.000000
v 7 12 1 1.000000 1.000000 1.000000
v 6 12 1 1.000000 1.000000 1.000000
v 8 12 0 1.000000 1.000000 1.000000
v 8 12 1 1.000000 1.000000 1.000000
v 9 12 0 1.000000 1.000000 1.000000
v 9 12 1 1.000000 1.000000 1.000000
v 10 12 0 1.000000 1.000000 1.000000
v 10 12 1 1.000000 1.000000 1.000000
v 11 12 0 1.000000 1.000000 1.000000
v 11 12 1 1.000000 1.000000 1.000000
v 6 13 0 1.000000 1.000000 1.000000
v 7 13 0 1.000000 1.000000 1.000000
v 7 13 1 1.000000 1.000000 1.000000
v 6 13 1 1.000000 1.000000 1.000000
v 8 13 0 1.000000 1.000000 1.000000
v 8 13 1 1.000000 1.000000 1.000000
v 9 13 0 1.000000 1.000000 1.000000
v 9 13 1 1.000000 1.000000 1.000000
v 10 13 0 1.000000 1.000000 1.000000
v 10 13 1 1.000000 1.000000 1.000000
v 11 13 0 1.000000 1.000000 1.000000
v 11 13 1 1.000000 1.000000 1.000000
v 12 12 0 1.000000 1.000000 1.000000
v 12 12 1 1.000000 1.000000 1.000000
v 12 13 0 1.000000 1.000000 1.000000
v 12 13 1 1.000000 1.000000 1.000000
v 13 12 0 1.000000 1.000000 1.000000
v 13 12 1 1.000000 1.000000 1.000000
v 13 13 0 1.000000 1.000000 1.000000
v 13 13 1 1.000000 1.000000 1.000000
v 14 12 0 1.000000 1.000000 1.000000
v 14 12 1 1.000000 1.000000 1.000000
v 14 13 0 1.000000 1.000000 1.000000
v 14 13 1 1.000000 1.000000 1.000000
v 7 14 0 1.000000 1.000000 1.000000
v 6 14 0 1.000000 1.000000 1.000000
v 6 14 1 1.000000 1.000000 1.000000
v 7 14 1 1.000000 1.000000 1.000000
v 8 14 0 1.000000 1.000000 1.000000
v 8 14 1 1.000000 1.000000 1.000000
v 9 14 0 1.000000 1.000000 1.000000
v 10 14 0 1.000000 1.000000 1.000000
v 10 14 1 1.000000 1.000000 1.000000
v 9 14 1 1.000000 1.000000 1.000000
v 11 14 0 1.000000 1.000000 1.000000
v 11 14 1 1.000000 1.000000 1.000000
v 12 14 0 1.000000 1.000000 1.000000
v 12 14 1 1.000000 1.000000 1.000000
v 13 14 0 1.000000 1.000000 1.000000
v 13 14 1 1.000000 1.000000 1.000000
v 14 14 0 1.000000 1.000000 1.000000
v 14 14 1 1.000000 1.000000 1.000000
v 8 15 0 1.000000 1.000000 1.000000
v 7 15 0 1.000000 1.000000 1.000000
v 7 15 1 1.000000 1.000000 1.000000
v 8 15 1 1.000000 1.000000 1.000000
v 9 15 0 1.000000 1.000000 1.000000
v 9 15 1 1.000000 1.000000 1.000000
v 10 15 0 1.000000 1.000000 1.000000
v 10 15 1 1.000000 1.000000 1.000000
v 11 15 0 1.000000 1.000000 1.000000
v 11 15 1 1.000000 1.000000 1.000000
v 12 15 0 1.000000 1.000000 1.000000
v 12 15 1 1.000000 1.000000 1.000000
v 13 15 0 1.000000 1.000000 1.000000
v 13 15 1 1.000000 1.000000 1.000000
vn 0 -1 0
vn 0 0 -1
vn 0 0 1
vn -1 0 0
vn 0 1 0
vn 1 0 0
f 1//1 2//1 3//1 4//1
f 1//2 5//2 6//2 2//2
f 3//3 7//3 8//3 4//3
f 1//4 4//4 8//4 5//4
f 2//1 9//1 10//1 3//1
f 11//5 6//5 7//5 12//5
f 2//2 6//2 11//2 9//2
f 10//3 12//3 7//3 3//3
f 9//6 11//6 12//6 10//6
f 5//2 13//2 14//2 6//2
f 7//3 15//3 16//3 8//3
f 6//6 14//6 15//6 7//6
f 5//4 8//4 16//4 13//4
f 13//2 17//2 18//2 14//2
f 15//3 19//3 20//3 16//3
f 14//6 18//6 19//6 15//6
f 13//4 16//4 20//4 17//4
f 21//1 22//1 23//1 24//1
f 21//2 25//2 26//2 22//2
f 23//3 27//3 28//3 24//3
f 21//4 24//4 28//4 25//4
f 22//1 29//1 30//1 23//1
f 31//5 26//5 27//5 32//5
f 22//2 26//2 31//2 29//2
f 30//3 32//3 27//3 23//3
f 29//6 31//6 32//6 30//6
f 17//2 33//2 34//2 18//2
f 19//3 35//3 36//3 20//3
f 17//4 20//4 36//4 33//4
f 18//1 37//1 38//1 19//1
f 18//2 34//2 39//2 37//2
f 38//3 40//3 35//3 19//3
f 37//1 25//1 28//1 38//1
f 37//2 39//2 41//2 25//2
f 28//3 42//3 40//3 38//3
f 25//2 41//2 43//2 26//2
f 27//3 44//3 42//3 28//3
f 26//6 43//6 44//6 27//6
f 45//1 33//1 36//1 46//1
f 45//2 47//2 48//2 33//2
f 36//3 49//3 50//3 46//3
f 45//4 46//4 50//4 47//4
f 33//2 48//2 51//2 34//2
f 35//3 52//3 49//3 36//3
f 34//2 51//2 53//2 39//2
f 40//3 54//3 52//3 35//3
f 39//2 53//2 55//2 41//2
f 42//3 56//3 54//3 40//3
f 41//2 55//2 57//2 43//2
f 44//3 58//3 56//3 42//3
f 43//1 59//1 60//1 44//1
f 43//2 57//2 61//2 59//2
f 60//3 62//3 58//3 44//3
f 59//6 61//6 62//6 60//6
f 63//1 47//1 50//1 64//1
f 63//2 65//2 66//2 47//2
f 50//3 67//3 68//3 64//3
f 63//4 64//4 68//4 65//4
f 47//2 66//2 69//2 48//2
f 49//3 70//3 67//3 50//3
f 48//2 69//2 71//2 51//2
f 52//3 72//3 70//3 49//3
f 51//2 71//2 73//2 53//2
f 54//3 74//3 72//3 52//3
f 53//2 73//2 75//2 55//2
f 56//3 76//3 74//3 54//3
f 55//2 75//2 77//2 57//2
f 58//3 78//3 76//3 56//3
f 57//2 77//2 79//2 61//2
f 62//3 80//3 78//3 58//3
f 61//1 81//1 82//1 62//1
f 61//2 79//2 83//2 81//2
f 82//3 84//3 80//3 62//3
f 81//6 83//6 84//6 82//6
f 85//1 65//1 68//1 86//1
f 85//2 87//2 88//2 65//2
f 68//3 89//3 90//3 86//3
f 85//4 86//4 90//4 87//4
f 65//2 88//2 91//2 66//2
f 67//3 92//3 89//3 68//3
f 66//2 91//2 93//2 69//2
f 70//3 94//3 92//3 67//3
f 69//2 93//2 95//2 71//2
f 72//3 96//3 94//3 70//3
f 71//2 95//2 97//2 73//2
f 74//3 98//3 96//3 72//3
f 73//2 97//2 99//2 75//2
f 76//3 100//3 98//3 74//3
f 75//2 99//2 101//2 77//2
f 78//3 102//3 100//3 76//3
f 77//2 101//2 103//2 79//2
f 80//3 104//3 102//3 78//3
f 79//2 103//2 105//2 83//2
f 84//3 106//3 104//3 80//3
f 83//6 105//6 106//6 84//6
f 87//2 107//2 108//2 88//2
f 89//3 109//3 110//3 90//3
f 87//4 90//4 110//4 107//4
f 88//2 108//2 111//2 91//2
f 92//3 112//3 109//3 89//3
f 113//5 111//5 112//5 114//5
f 91//2 111//2 113//2 93//2
f 94//3 114//3 112//3 92//3
f 115//5 113//5 114//5 116//5
f 93//2 113//2 115//2 95//2
f 96//3 116//3 114//3 94//3
f 95//2 115//2 117//2 97//2
f 98//3 118//3 116//3 96//3
f 97//2 117//2 119//2 99//2
f 100//3 120//3 118//3 98//3
f 99//2 119//2 121//2 101//2
f 102//3 122//3 120//3 100//3
f 101//2 121//2 123//2 103//2
f 104//3 124//3 122//3 102//3
f 103//2 123//2 125//2 105//2
f 106//3 126//3 124//3 104//3
f 105//6 125//6 126//6 106//6
f 127//1 128//1 129//1 130//1
f 127//2 131//2 132//2 128//2
f 129//3 133//3 134//3 130//3
f 128//6 132//6 133//6 129//6
f 127//4 130//4 134//4 131//4
f 107//2 135//2 136//2 108//2
f 109//3 137//3 138//3 110//3
f 107//4 110//4 138//4 135//4
f 139//5 136//5 137//5 140//5
f 108//2 136//2 139//2 111//2
f 112//3 140//3 137//3 109//3
f 111//6 139//6 140//6 112//6
f 141//5 142//5 143//5 144//5
f 115//2 142//2 141//2 117//2
f 118//3 144//3 143//3 116//3
f 115//4 116//4 143//4 142//4
f 117//2 141//2 145//2 119//2
f 120//3 146//3 144//3 118//3
f 119//2 145//2 147//2 121//2
f 122//3 148//3 146//3 120//3
f 121//2 147//2 149//2 123//2
f 124//3 150//3 148//3 122//3
f 123//2 149//2 151//2 125//2
f 126//3 152//3 150//3 124//3
f 125//1 131//1 134//1 126//1
f 153//5 151//5 152//5 154//5
f 125//2 151//2 153//2 131//2
f 134//3 154//3 152//3 126//3
f 155//5 153//5 154//5 156//5
f 131//2 153//2 155//2 132//2
f 133//3 156//3 154//3 134//3
f 132//6 155//6 156//6 133//6
f 157//5 158//5 159//5 160//5
f 135//2 158//2 157//2 136//2
f 137//3 160//3 159//3 138//3
f 136//6 157//6 160//6 137//6
f 135//4 138//4 159//4 158//4
f 161//5 162//5 163//5 164//5
f 141//2 162//2 161//2 145//2
f 146//3 164//3 163//3 144//3
f 141//4 144//4 163//4 162//4
f 145//2 161//2 165//2 147//2
f 148//3 166//3 164//3 146//3
f 147//2 165//2 167//2 149//2
f 150//3 168//3 166//3 148//3
f 149//2 167//2 169//2 151//2
f 152//3 170//3 168//3 150//3
f 151//6 169//6 170//6 152//6
f 161//2 171//2 172//2 165//2
f 166//3 173//3 174//3 164//3
f 161//4 164//4 174//4 171//4
f 165//2 172//2 175//2 167//2
f 168//3 176//3 173//3 166//3
f 167//2 175//2 177//2 169//2
f 170//3 178//3 176//3 168//3
f 169//1 179//1 180//1 170//1
f 169//2 177//2 181//2 179//2
f 180//3 182//3 178//3 170//3
f 179//1 183//1 184//1 180//1
f 179//2 181//2 185//2 183//2
f 184//3 186//3 182//3 180//3
f 183//1 187//1 188//1 184//1
f 189//5 185//5 186//5 190//5
f 183//2 185//2 189//2 187//2
f 188//3 190//3 186//3 184//3
f 187//1 191//1 192//1 188//1
f 193//5 189//5 190//5 194//5
f 187//2 189//2 193//2 191//2
f 192//3 194//3 190//3 188//3
f 191//6 193//6 194//6 192//6
f 171//2 195//2 196//2 172//2
f 173//3 197//3 198//3 174//3
f 171//4 174//4 198//4 195//4
f 172//2 196//2 199//2 175//2
f 176//3 200//3 197//3 173//3
f 175//2 199//2 201//2 177//2
f 178//3 202//3 200//3 176//3
f 177//2 201//2 203//2 181//2
f 182//3 204//3 202//3 178//3
f 181//2 203//2 205//2 185//2
f 186//3 206//3 204//3 182//3
f 185//6 205//6 206//6 186//6
f 195//2 207//2 208//2 196//2
f 197//3 209//3 210//3 198//3
f 195//4 198//4 210//4 207//4
f 196//2 208//2 211//2 199//2
f 200//3 212//3 209//3 197//3
f 213//5 211//5 212//5 214//5
f 199//2 211//2 213//2 201//2
f 202//3 214//3 212//3 200//3
f 201//2 213//2 215//2 203//2
f 204//3 216//3 214//3 202//3
f 203//2 215//2 217//2 205//2
f 206//3 218//3 216//3 204//3
f 205//1 219//1 220//1 206//1
f 205//2 217//2 221//2 219//2
f 220//3 222//3 218//3 206//3
f 219//1 223//1 224//1 220//1
f 219//2 221//2 225//2 223//2
f 224//3 226//3 222//3 220//3
f 223//1 227//1 228//1 224//1
f 223//2 225//2 229//2 227//2
f 228//3 230//3 226//3 224//3
f 227//6 229//6 230//6 228//6
f 231//5 232//5 233//5 234//5
f 207//2 232//2 231//2 208//2
f 209//3 234//3 233//3 210//3
f 207//4 210//4 233//4 232//4
f 208//2 231//2 235//2 211//2
f 212//3 236//3 234//3 209//3
f 211//6 235//6 236//6 212//6
f 213//2 237//2 238//2 215//2
f 216//3 239//3 240//3 214//3
f 213//4 214//4 240//4 237//4
f 215//2 238//2 241//2 217//2
f 218//3 242//3 239//3 216//3
f 217//2 241//2 243//2 221//2
f 222//3 244//3 242//3 218//3
f 221//2 243//2 245//2 225//2
f 226//3 246//3 244//3 222//3
f 247//5 245//5 246//5 248//5
f 225//2 245//2 247//2 229//2
f 230//3 248//3 246//3 226//3
f 229//6 247//6 248//6 230//6
f 249//5 250//5 251//5 252//5
f 231//2 250//2 249//2 235//2
f 236//3 252//3 251//3 234//3
f 231//4 234//4 251//4 250//4
f 235//1 237//1 240//1 236//1
f 253//5 249//5 252//5 254//5
f 235//2 249//2 253//2 237//2
f 240//3 254//3 252//3 236//3
f 255//5 253//5 254//5 256//5
f 237//2 253//2 255//2 238//2
f 239//3 256//3 254//3 240//3
f 257//5 255//5 256//5 258//5
f 238//2 255//2 257//2 241//2
f 242//3 258//3 256//3 239//3
f 259//5 257//5 258//5 260//5
f 241//2 257//2 259//2 243//2
f 244//3 260//3 258//3 242//3
f 261//5 259//5 260//5 262//5
f 243//2 259//2 261//2 245//2
f 246//3 262//3 260//3 244//3
f 245//6 261//6 262//6 246//6
