# Goxel 0.10.0
v 3 0 0 1.000000 1.000000 1.000000
v 4 0 0 1.000000 1.000000 1.000000
v 4 0 1 1.000000 1.000000 1.000000
v 3 0 1 1.000000 1.000000 1.000000
v 3 1 0 1.000000 1.000000 1.000000
v 4 1 0 1.000000 1.000000 1.000000
v 4 1 1 1.000000 1.000000 1.000000
v 3 1 1 1.000000 1.000000 1.000000
v 5 0 0 1.000000 1.000000 1.000000
v 5 0 1 1.000000 1.000000 1.000000
v 5 1 0 1.000000 1.000000 1.000000
v 5 1 1 1.000000 1.000000 1.000000
v 6 0 0 1.000000 1.000000 1.000000
v 7 0 0 1.000000 1.000000 1.000000
v 7 0 1 1.000000 1.000000 1.000000
v 6 0 1 1.000000 1.000000 1.000000
v 6 1 0 1.000000 1.000000 1.000000
v 7 1 0 1.000000 1.000000 1.000000
v 7 1 1 1.000000 1.000000 1.000000
v 6 1 1 1.000000 1.000000 1.000000
v 8 0 0 1.000000 1.000000 1.000000
v 8 0 1 1.000000 1.000000 1.000000
v 8 1 0 1.000000 1.000000 1.000000
v 8 1 1 1.000000 1.000000 1.000000
v 3 2 0 1.000000 1.000000 1.000000
v 4 2 0 1.000000 1.000000 1.000000
v 4 2 1 1.000000 1.000000 1.000000
v 3 2 1 1.000000 1.000000 1.000000
v 6 2 0 1.000000 1.000000 1.000000
v 7 2 0 1.000000 1.000000 1.000000
v 7 2 1 1.000000 1.000000 1.000000
v 6 2 1 1.000000 1.000000 1.000000
v 3 3 0 1.000000 1.000000 1.000000
v 4 3 0 1.000000 1.000000 1.000000
v 4 3 1 1.000000 1.000000 1.000000
v 3 3 1 1.000000 1.000000 1.000000
v 6 3 0 1.000000 1.000000 1.000000
v 7 3 0 1.000000 1.000000 1.000000
v 7 3 1 1.000000 1.000000 1.000000
v 6 3 1 1.000000 1.000000 1.000000
v 3 4 0 1.000000 1.000000 1.000000
v 4 4 0 1.000000 1.000000 1.000000
v 4 4 1 1.000000 1.000000 1.000000
v 3 4 1 1.000000 1.000000 1.000000
v 5 3 0 1.000000 1.000000 1.000000
v 5 3 1 1.000000 1.000000 1.000000
v 5 4 0 1.000000 1.000000 1.000000
v 5 4 1 1.000000 1.000000 1.000000
v 6 4 0 1.000000 1.000000 1.000000
v 6 4 1 1.000000 1.000000 1.000000
v 7 4 0 1.000000 1.000000 1.000000
v 7 4 1 1.000000 1.000000 1.000000
v 2 4 0 1.000000 1.000000 1.000000
v 2 4 1 1.000000 1.000000 1.000000
v 2 5 0 1.000000 1.000000 1.000000
v 3 5 0 1.000000 1.000000 1.000000
v 3 5 1 1.000000 1.000000 1.000000
v 2 5 1 1.000000 1.000000 1.000000
v 4 5 0 1.000000 1.000000 1.000000
v 4 5 1 1.000000 1.000000 1.000000
v 5 5 0 1.000000 1.000000 1.000000
v 5 5 1 1.000000 1.000000 1.000000
v 6 5 0 1.000000 1.000000 1.000000
v 6 5 1 1.000000 1.000000 1.000000
v 7 5 0 1.000000 1.000000 1.000000
v 7 5 1 1.000000 1.000000 1.000000
v 8 4 0 1.000000 1.000000 1.000000
v 8 4 1 1.000000 1.000000 1.000000
v 8 5 0 1.000000 1.000000 1.000000
v 8 5 1 1.000000 1.000000 1.000000
v 1 5 0 1.000000 1.000000 1.000000
v 1 5 1 1.000000 1.000000 1.000000
v 1 6 0 1.000000 1.000000 1.000000
v 2 6 0 1.000000 1.000000 1.000000
v 2 6 1 1.000000 1.000000 1.000000
v 1 6 1 1.000000 1.000000 1.000000
v 3 6 0 1.000000 1.000000 1.000000
v 3 6 1 1.000000 1.000000 1.000000
v 4 6 0 1.000000 1.000000 1.000000
v 4 6 1 1.000000 1.000000 1.000000
v 5 6 0 1.000000 1.000000 1.000000
v 5 6 1 1.000000 1.000000 1.000000
v 6 6 0 1.000000 1.000000 1.000000
v 6 6 1 1.000000 1.000000 1.000000
v 7 6 0 1.000000 1.000000 1.000000
v 7 6 1 1.000000 1.000000 1.000000
v 8 6 0 1.000000 1.000000 1.000000
v 8 6 1 1.000000 1.000000 1.000000
v 9 5 0 1.000000 1.000000 1.000000
v 9 5 1 1.000000 1.000000 1.000000
v 9 6 0 1.000000 1.000000 1.000000
v 9 6 1 1.000000 1.000000 1.000000
v 0 6 0 1.000000 1.000000 1.000000
v 0 6 1 1.000000 1.000000 1.000000
v 0 7 0 1.000000 1.000000 1.000000
v 1 7 0 1.000000 1.000000 1.000000
v 1 7 1 1.000000 1.000000 1.000000
v 0 7 1 1.000000 1.000000 1.000000
v 2 7 0 1.000000 1.000000 1.000000
v 2 7 1 1.000000 1.000000 1.000000
v 3 7 0 1.000000 1.000000 1.000000
v 3 7 1 1.000000 1.000000 1.000000
v 4 7 0 1.000000 1.000000 1.000000
v 4 7 1 1.000000 1.000000 1.000000
v 5 7 0 1.000000 1.000000 1.000000
v 5 7 1 1.000000 1.000000 1.000000
v 6 7 0 1.000000 1.000000 1.000000
v 6 7 1 1.000000 1.000000 1.000000
v 7 7 0 1.000000 1.000000 1.000000
v 7 7 1 1.000000 1.000000 1.000000
v 8 7 0 1.000000 1.000000 1.000000
v 8 7 1 1.000000 1.000000 1.000000
v 9 7 0 1.000000 1.000000 1.000000
v 9 7 1 1.000000 1.000000 1.000000
v 0 8 0 1.000000 1.000000 1.000000
v 1 8 0 1.000000 1.000000 1.000000
v 1 8 1 1.000000 1.000000 1.000000
v 0 8 1 1.000000 1.000000 1.000000
v 2 8 0 1.000000 1.000000 1.000000
v 2 8 1 1.000000 1.000000 1.000000
v 3 8 0 1.000000 1.000000 1.000000
v 3 8 1 1.000000 1.000000 1.000000
v 4 8 0 1.000000 1.000000 1.000000
v 4 8 1 1.000000 1.000000 1.000000
v 5 8 0 1.000000 1.000000 1.000000
v 5 8 1 1.000000 1.000000 1.000000
v 6 8 0 1.000000 1.000000 1.000000
v 6 8 1 1.000000 1.000000 1.000000
v 7 8 0 1.000000 1.000000 1.000000
v 7 8 1 1.000000 1.000000 1.000000
v 8 8 0 1.000000 1.000000 1.000000
v 8 8 1 1.000000 1.000000 1.000000
v 9 8 0 1.000000 1.000000 1.000000
v 9 8 1 1.000000 1.000000 1.000000
v 10 7 0 1.000000 1.000000 1.000000
v 11 7 0 1.000000 1.000000 1.000000
v 11 7 1 1.000000 1.000000 1.000000
v 10 7 1 1.000000 1.000000 1.000000
v 10 8 0 1.000000 1.000000 1.000000
v 11 8 0 1.000000 1.000000 1.000000
v 11 8 1 1.000000 1.000000 1.000000
v 10 8 1 1.000000 1.000000 1.000000
v 0 9 0 1.000000 1.000000 1.000000
v 1 9 0 1.000000 1.000000 1.000000
v 1 9 1 1.000000 1.000000 1.000000
v 0 9 1 1.000000 1.000000 1.000000
v 2 9 0 1.000000 1.000000 1.000000
v 2 9 1 1.000000 1.000000 1.000000
v 5 9 0 1.000000 1.000000 1.000000
v 4 9 0 1.000000 1.000000 1.000000
v 4 9 1 1.000000 1.000000 1.000000
v 5 9 1 1.000000 1.000000 1.000000
v 6 9 0 1.000000 1.000000 1.000000
v 6 9 1 1.000000 1.000000 1.000000
v 7 9 0 1.000000 1.000000 1.000000
v 7 9 1 1.000000 1.000000 1.000000
v 8 9 0 1.000000 1.000000 1.000000
v 8 9 1 1.000000 1.000000 1.000000
v 9 9 0 1.000000 1.000000 1.000000
v 9 9 1 1.000000 1.000000 1.000000
v 10 9 0 1.000000 1.000000 1.000000
v 10 9 1 1.000000 1.000000 1.000000
v 11 9 0 1.000000 1.000000 1.000000
v 11 9 1 1.000000 1.000000 1.000000
v 1 10 0 1.000000 1.000000 1.000000
v 0 10 0 1.000000 1.000000 1.000000
v 0 10 1 1.000000 1.000000 1.000000
v 1 10 1 1.000000 1.000000 1.000000
v 6 10 0 1.000000 1.000000 1.000000
v 5 10 0 1.000000 1.000000 1.000000
v 5 10 1 1.000000 1.000000 1.000000
v 6 10 1 1.000000 1.000000 1.000000
v 7 10 0 1.000000 1.000000 1.000000
v 7 10 1 1.000000 1.000000 1.000000
v 8 10 0 1.000000 1.000000 1.000000
v 8 10 1 1.000000 1.000000 1.000000
v 9 10 0 1.000000 1.000000 1.000000
v 9 10 1 1.000000 1.000000 1.000000
v 6 11 0 1.000000 1.000000 1.000000
v 7 11 0 1.000000 1.000000 1.000000
v 7 11 1 1.000000 1.000000 1.000000
v 6 11 1 1.000000 1.000000 1.000000
v 8 11 0 1.000000 1.000000 1.000000
v 8 11 1 1.000000 1.000000 1.000000
v 9 11 0 1.000000 1.000000 1.000000
v 9 11 1 1.000000 1.000000 1.000000
v 10 10 0 1.000000 1.000000 1.000000
v 10 10 1 1.000000 1.000000 1.000000
v 10 11 0 1.000000 1.000000 1.000000
v 10 11 1 1.000000 1.000000 1.000000
v 11 10 0 1.000000 1.000000 1.000000
v 11 10 1 1.000000 1.000000 1.000000
v 11 11 0 1.000000 1.000000 1.000000
v 11 11 1 1.000000 1.000000 1.000000
v 12 10 0 1.000000 1.000000 1.000000
v 12 10 1 1.000000 1.000000 1.000000
v 12 11 0 1.000000 1.000000 1.000000
v 12 11 1 1.000000 1.000000 1.000000
v 13 10 0 1.000000 1.000000 1.000000
v 13 10 1 1.000000 1.000000 1.000000
v 13 11 0 1.000000 1.000000 1.000000
v 13 11 1 1.000000 1.000000 1.000000
v 6 12 0 1.000000 1.000000 1.000000
v 7 12 0 1.000000 1.000000 1.000000
v 7 12 1 1.000000 1.000000 1.000000
v 6 12 1 1.000000 1.000000 1.000000
v 8 12 0 1.000000 1.000000 1.000000
v 8 12 1 1.000000 1.000000 1.000000
v 9 12 0 1.000000 1.000000 1.000000
v 9 12 1 1.000000 1.000000 1.000000
v 10 12 0 1.000000 1.000000 1.000000
v 10 12 1 1.000000 1.000000 1.000000
v 11 12 0 1.000000 1.000000 1.000000
v 11 12 1 1.000000 1.000000 1.000000
v 6 13 0 1.000000 1.000000 1.000000
v 7 13 0 1.000000 1.000000 1.000000
v 7 13 1 1.000000 1.000000 1.000000
v 6 13 1 1.000000 1.000000 1.000000
v 8 13 0 1.000000 1.000000 1.000000
v 8 13 1 1.000000 1.000000 1.000000
v 9 13 0 1.000000 1.000000 1.000000
v 9 13 1 1.000000 1.000000 1.000000
v 10 13 0 1.000000 1.000000 1.000000
v 10 13 1 1.000000 1.000000 1.000000
v 11 13 0 1.000000 1.000000 1.000000
v 11 13 1 1.000000 1.000000 1.000000
v 12 12 0 1.000000 1.000000 1.000000
v 12 12 1 1.000000 1.000000 1.000000
v 12 13 0 1.000000 1.000000 1.000000
v 12 13 1 1.000000 1.000000 1.000000
v 13 12 0 1.000000 1.000000 1.000000
v 13 12 1 1.000000 1.000000 1.000000
v 13 13 0 1.000000 1.000000 1.000000
v 13 13 1 1.000000 1.000000 1.000000
v 14 12 0 1.000000 1.000000 1.000000
v 14 12 1 1.000000 1.000000 1.000000
v 14 13 0 1.000000 1.000000 1.000000
v 14 13 1 1.000000 1.000000 1.000000
v 7 14 0 1.000000 1.000000 1.000000
v 6 14 0 1.000000 1.000000 1.000000
v 6 14 1 1.000000 1.000000 1.000000
v 7 14 1 1.000000 1.000000 1.000000
v 8 14 0 1.000000 1.000000 1.000000
v 8 14 1 1.000000 1.000000 1.000000
v 9 14 0 1.000000 1.000000 1.000000
v 10 14 0 1.000000 1.000000 1.000000
v 10 14 1 1.000000 1.000000 1.000000
v 9 14 1 1.000000 1.000000 1.000000
v 11 14 0 1.000000 1.000000 1.000000
v 11 14 1 1.000000 1.000000 1.000000
v 12 14 0 1.000000 1.000000 1.000000
v 12 14 1 1.000000 1.000000 1.000000
v 13 14 0 1.000000 1.000000 1.000000
v 13 14 1 1.000000 1.000000 1.000000
v 14 14 0 1.000000 1.000000 1.000000
v 14 14 1 1.000000 1.000000 1.000000
v 8 15 0 1.000000 1.000000 1.000000
v 7 15 0 1.000000 1.000000 1.000000
v 7 15 1 1.000000 1.000000 1.000000
v 8 15 1 1.000000 1.000000 1.000000
v 9 15 0 1.000000 1.000000 1.000000
v 9 15 1 1.000000 1.000000 1.000000
v 10 15 0 1.000000 1.000000 1.000000
v 10 15 1 1.000000 1.000000 1.000000
v 11 15 0 1.000000 1.000000 1.000000
v 11 15 1 1.000000 1.000000 1.000000
v 12 15 0 1.000000 1.000000 1.000000
v 12 15 1 1.000000 1.000000 1.000000
v 13 15 0 1.000000 1.000000 1.000000
v 13 15 1 1.000000 1.000000 1.000000
vn 0 -1 0
vn 0 0 -1
vn 0 0 1
vn -1 0 0
vn 0 1 0
vn 1 0 0
f 1//1 2//1 3//1 4//1
f 1//2 5//2 6//2 2//2
f 3//3 7//3 8//3 4//3
f 1//4 4//4 8//4 5//4
f 2//1 9//1 10//1 3//1
f 11//5 6//5 7//5 12//5
f 2//2 6//2 11//2 9//2
f 10//3 12//3 7//3 3//3
f 9//6 11//6 12//6 10//6
f 13//1 14//1 15//1 16//1
f 13//2 17//2 18//2 14//2
f 15//3 19//3 20//3 16//3
f 13//4 16//4 20//4 17//4
f 14//1 21//1 22//1 15//1
f 23//5 18//5 19//5 24//5
f 14//2 18//2 23//2 21//2
f 22//3 24//3 19//3 15//3
f 21//6 23//6 24//6 22//6
f 5//2 25//2 26//2 6//2
f 7//3 27//3 28//3 8//3
f 6//6 26//6 27//6 7//6
f 5//4 8//4 28//4 25//4
f 17//2 29//2 30//2 18//2
f 19//3 31//3 32//3 20//3
f 18//6 30//6 31//6 19//6
f 17//4 20//4 32//4 29//4
f 25//2 33//2 34//2 26//2
f 27//3 35//3 36//3 28//3
f 26//6 34//6 35//6 27//6
f 25//4 28//4 36//4 33//4
f 29//2 37//2 38//2 30//2
f 31//3 39//3 40//3 32//3
f 30//6 38//6 39//6 31//6
f 29//4 32//4 40//4 37//4
f 33//2 41//2 42//2 34//2
f 35//3 43//3 44//3 36//3
f 33//4 36//4 44//4 41//4
f 34//1 45//1 46//1 35//1
f 34//2 42//2 47//2 45//2
f 46//3 48//3 43//3 35//3
f 45//1 37//1 40//1 46//1
f 45//2 47//2 49//2 37//2
f 40//3 50//3 48//3 46//3
f 37//2 49//2 51//2 38//2
f 39//3 52//3 50//3 40//3
f 38//6 51//6 52//6 39//6
f 53//1 41//1 44//1 54//1
f 53//2 55//2 56//2 41//2
f 44//3 57//3 58//3 54//3
f 53//4 54//4 58//4 55//4
f 41//2 56//2 59//2 42//2
f 43//3 60//3 57//3 44//3
f 42//2 59//2 61//2 47//2
f 48//3 62//3 60//3 43//3
f 47//2 61//2 63//2 49//2
f 50//3 64//3 62//3 48//3
f 49//2 63//2 65//2 51//2
f 52//3 66//3 64//3 50//3
f 51//1 67//1 68//1 52//1
f 51//2 65//2 69//2 67//2
f 68//3 70//3 66//3 52//3
f 67//6 69//6 70//6 68//6
f 71//1 55//1 58//1 72//1
f 71//2 73//2 74//2 55//2
f 58//3 75//3 76//3 72//3
f 71//4 72//4 76//4 73//4
f 55//2 74//2 77//2 56//2
f 57//3 78//3 75//3 58//3
f 56//2 77//2 79//2 59//2
f 60//3 80//3 78//3 57//3
f 59//2 79//2 81//2 61//2
f 62//3 82//3 80//3 60//3
f 61//2 81//2 83//2 63//2
f 64//3 84//3 82//3 62//3
f 63//2 83//2 85//2 65//2
f 66//3 86//3 84//3 64//3
f 65//2 85//2 87//2 69//2
f 70//3 88//3 86//3 66//3
f 69//1 89//1 90//1 70//1
f 69//2 87//2 91//2 89//2
f 90//3 92//3 88//3 70//3
f 89//6 91//6 92//6 90//6
f 93//1 73//1 76//1 94//1
f 93//2 95//2 96//2 73//2
f 76//3 97//3 98//3 94//3
f 93//4 94//4 98//4 95//4
f 73//2 96//2 99//2 74//2
f 75//3 100//3 97//3 76//3
f 74//2 99//2 101//2 77//2
f 78//3 102//3 100//3 75//3
f 77//2 101//2 103//2 79//2
f 80//3 104//3 102//3 78//3
f 79//2 103//2 105//2 81//2
f 82//3 106//3 104//3 80//3
f 81//2 105//2 107//2 83//2
f 84//3 108//3 106//3 82//3
f 83//2 107//2 109//2 85//2
f 86//3 110//3 108//3 84//3
f 85//2 109//2 111//2 87//2
f 88//3 112//3 110//3 86//3
f 87//2 111//2 113//2 91//2
f 92//3 114//3 112//3 88//3
f 91//6 113//6 114//6 92//6
f 95//2 115//2 116//2 96//2
f 97//3 117//3 118//3 98//3
f 95//4 98//4 118//4 115//4
f 96//2 116//2 119//2 99//2
f 100//3 120//3 117//3 97//3
f 121//5 119//5 120//5 122//5
f 99//2 119//2 121//2 101//2
f 102//3 122//3 120//3 100//3
f 123//5 121//5 122//5 124//5
f 101//2 121//2 123//2 103//2
f 104//3 124//3 122//3 102//3
f 103//2 123//2 125//2 105//2
f 106//3 126//3 124//3 104//3
f 105//2 125//2 127//2 107//2
f 108//3 128//3 126//3 106//3
f 107//2 127//2 129//2 109//2
f 110//3 130//3 128//3 108//3
f 109//2 129//2 131//2 111//2
f 112//3 132//3 130//3 110//3
f 111//2 131//2 133//2 113//2
f 114//3 134//3 132//3 112//3
f 113//6 133//6 134//6 114//6
f 135//1 136//1 137//1 138//1
f 135//2 139//2 140//2 136//2
f 137//3 141//3 142//3 138//3
f 136//6 140//6 141//6 137//6
f 135//4 138//4 142//4 139//4
f 115//2 143//2 144//2 116//2
f 117//3 145//3 146//3 118//3
f 115//4 118//4 146//4 143//4
f 147//5 144//5 145//5 148//5
f 116//2 144//2 147//2 119//2
f 120//3 148//3 145//3 117//3
f 119//6 147//6 148//6 120//6
f 149//5 150//5 151//5 152//5
f 123//2 150//2 149//2 125//2
f 126//3 152//3 151//3 124//3
f 123//4 124//4 151//4 150//4
f 125//2 149//2 153//2 127//2
f 128//3 154//3 152//3 126//3
f 127//2 153//2 155//2 129//2
f 130//3 156//3 154//3 128//3
f 129//2 155//2 157//2 131//2
f 132//3 158//3 156//3 130//3
f 131//2 157//2 159//2 133//2
f 134//3 160//3 158//3 132//3
f 133//1 139//1 142//1 134//1
f 161//5 159//5 160//5 162//5
f 133//2 159//2 161//2 139//2
f 142//3 162//3 160//3 134//3
f 163//5 161//5 162//5 164//5
f 139//2 161//2 163//2 140//2
f 141//3 164//3 162//3 142//3
f 140//6 163//6 164//6 141//6
f 165//5 166//5 167//5 168//5
f 143//2 166//2 165//2 144//2
f 145//3 168//3 167//3 146//3
f 144//6 165//6 168//6 145//6
f 143//4 146//4 167//4 166//4
f 169//5 170//5 171//5 172//5
f 149//2 170//2 169//2 153//2
f 154//3 172//3 171//3 152//3
f 149//4 152//4 171//4 170//4
f 153//2 169//2 173//2 155//2
f 156//3 174//3 172//3 154//3
f 155//2 173//2 175//2 157//2
f 158//3 176//3 174//3 156//3
f 157//2 175//2 177//2 159//2
f 160//3 178//3 176//3 158//3
f 159//6 177//6 178//6 160//6
f 169//2 179//2 180//2 173//2
f 174//3 181//3 182//3 172//3
f 169//4 172//4 182//4 179//4
f 173//2 180//2 183//2 175//2
f 176//3 184//3 181//3 174//3
f 175//2 183//2 185//2 177//2
f 178//3 186//3 184//3 176//3
f 177//1 187//1 188//1 178//1
f 177//2 185//2 189//2 187//2
f 188//3 190//3 186//3 178//3
f 187//1 191//1 192//1 188//1
f 187//2 189//2 193//2 191//2
f 192//3 194//3 190//3 188//3
f 191//1 195//1 196//1 192//1
f 197//5 193//5 194//5 198//5
f 191//2 193//2 197//2 195//2
f 196//3 198//3 194//3 192//3
f 195//1 199//1 200//1 196//1
f 201//5 197//5 198//5 202//5
f 195//2 197//2 201//2 199//2
f 200//3 202//3 198//3 196//3
f 199//6 201//6 202//6 200//6
f 179//2 203//2 204//2 180//2
f 181//3 205//3 206//3 182//3
f 179//4 182//4 206//4 203//4
f 180//2 204//2 207//2 183//2
f 184//3 208//3 205//3 181//3
f 183//2 207//2 209//2 185//2
f 186//3 210//3 208//3 184//3
f 185//2 209//2 211//2 189//2
f 190//3 212//3 210//3 186//3
f 189//2 211//2 213//2 193//2
f 194//3 214//3 212//3 190//3
f 193//6 213//6 214//6 194//6
f 203//2 215//2 216//2 204//2
f 205//3 217//3 218//3 206//3
f 203//4 206//4 218//4 215//4
f 204//2 216//2 219//2 207//2
f 208//3 220//3 217//3 205//3
f 221//5 219//5 220//5 222//5
f 207//2 219//2 221//2 209//2
f 210//3 222//3 220//3 208//3
f 209//2 221//2 223//2 211//2
f 212//3 224//3 222//3 210//3
f 211//2 223//2 225//2 213//2
f 214//3 226//3 224//3 212//3
f 213//1 227//1 228//1 214//1
f 213//2 225//2 229//2 227//2
f 228//3 230//3 226//3 214//3
f 227//1 231//1 232//1 228//1
f 227//2 229//2 233//2 231//2
f 232//3 234//3 230//3 228//3
f 231//1 235//1 236//1 232//1
f 231//2 233//2 237//2 235//2
f 236//3 238//3 234//3 232//3
f 235//6 237//6 238//6 236//6
f 239//5 240//5 241//5 242//5
f 215//2 240//2 239//2 216//2
f 217//3 242//3 241//3 218//3
f 215//4 218//4 241//4 240//4
f 216//2 239//2 243//2 219//2
f 220//3 244//3 242//3 217//3
f 219//6 243//6 244//6 220//6
f 221//2 245//2 246//2 223//2
f 224//3 247//3 248//3 222//3
f 221//4 222//4 248//4 245//4
f 223//2 246//2 249//2 225//2
f 226//3 250//3 247//3 224//3
f 225//2 249//2 251//2 229//2
f 230//3 252//3 250//3 226//3
f 229//2 251//2 253//2 233//2
f 234//3 254//3 252//3 230//3
f 255//5 253//5 254//5 256//5
f 233//2 253//2 255//2 237//2
f 238//3 256//3 254//3 234//3
f 237//6 255//6 256//6 238//6
f 257//5 258//5 259//5 260//5
f 239//2 258//2 257//2 243//2
f 244//3 260//3 259//3 242//3
f 239//4 242//4 259//4 258//4
f 243//1 245//1 248//1 244//1
f 261//5 257//5 260//5 262//5
f 243//2 257//2 261//2 245//2
f 248//3 262//3 260//3 244//3
f 263//5 261//5 262//5 264//5
f 245//2 261//2 263//2 246//2
f 247//3 264//3 262//3 248//3
f 265//5 263//5 264//5 266//5
f 246//2 263//2 265//2 249//2
f 250//3 266//3 264//3 247//3
f 267//5 265//5 266//5 268//5
f 249//2 265//2 267//2 251//2
f 252//3 268//3 266//3 250//3
f 269//5 267//5 268//5 270//5
f 251//2 267//2 269//2 253//2
f 254//3 270//3 268//3 252//3
f 253//6 269//6 270//6 254//6
