# Goxel 0.10.0
v -5 -16 0 1.000000 1.000000 1.000000
v -4 -16 0 1.000000 1.000000 1.000000
v -4 -16 1 1.000000 1.000000 1.000000
v -5 -16 1 1.000000 1.000000 1.000000
v -4 -15 0 1.000000 1.000000 1.000000
v -5 -15 0 1.000000 1.000000 1.000000
v -5 -15 1 1.000000 1.000000 1.000000
v -4 -15 1 1.000000 1.000000 1.000000
v -3 -16 0 1.000000 1.000000 1.000000
v -3 -16 1 1.000000 1.000000 1.000000
v -3 -15 0 1.000000 1.000000 1.000000
v -3 -15 1 1.000000 1.000000 1.000000
v -2 -16 0 1.000000 1.000000 1.000000
v -2 -16 1 1.000000 1.000000 1.000000
v -2 -15 0 1.000000 1.000000 1.000000
v -2 -15 1 1.000000 1.000000 1.000000
v -1 -16 0 1.000000 1.000000 1.000000
v 0 -16 0 1.000000 1.000000 1.000000
v 0 -16 1 1.000000 1.000000 1.000000
v -1 -16 1 1.000000 1.000000 1.000000
v 0 -15 0 1.000000 1.000000 1.000000
v -1 -15 0 1.000000 1.000000 1.000000
v -1 -15 1 1.000000 1.000000 1.000000
v 0 -15 1 1.000000 1.000000 1.000000
v -16 -15 0 1.000000 1.000000 1.000000
v -15 -15 0 1.000000 1.000000 1.000000
v -15 -15 1 1.000000 1.000000 1.000000
v -16 -15 1 1.000000 1.000000 1.000000
v -15 -14 0 1.000000 1.000000 1.000000
v -16 -14 0 1.000000 1.000000 1.000000
v -16 -14 1 1.000000 1.000000 1.000000
v -15 -14 1 1.000000 1.000000 1.000000
v -14 -15 0 1.000000 1.000000 1.000000
v -14 -15 1 1.000000 1.000000 1.000000
v -14 -14 0 1.000000 1.000000 1.000000
v -14 -14 1 1.000000 1.000000 1.000000
v -12 -15 0 1.000000 1.000000 1.000000
v -11 -15 0 1.000000 1.000000 1.000000
v -11 -15 1 1.000000 1.000000 1.000000
v -12 -15 1 1.000000 1.000000 1.000000
v -11 -14 0 1.000000 1.000000 1.000000
v -12 -14 0 1.000000 1.000000 1.000000
v -12 -14 1 1.000000 1.000000 1.000000
v -11 -14 1 1.000000 1.000000 1.000000
v -10 -15 0 1.000000 1.000000 1.000000
v -9 -15 0 1.000000 1.000000 1.000000
v -9 -15 1 1.000000 1.000000 1.000000
v -10 -15 1 1.000000 1.000000 1.000000
v -9 -14 0 1.000000 1.000000 1.000000
v -10 -14 0 1.000000 1.000000 1.000000
v -10 -14 1 1.000000 1.000000 1.000000
v -9 -14 1 1.000000 1.000000 1.000000
v -14 -13 0 1.000000 1.000000 1.000000
v -15 -13 0 1.000000 1.000000 1.000000
v -15 -13 1 1.000000 1.000000 1.000000
v -14 -13 1 1.000000 1.000000 1.000000
v -13 -14 0 1.000000 1.000000 1.000000
v -13 -14 1 1.000000 1.000000 1.000000
v -13 -13 0 1.000000 1.000000 1.000000
v -13 -13 1 1.000000 1.000000 1.000000
v -8 -13 0 1.000000 1.000000 1.000000
v -7 -13 0 1.000000 1.000000 1.000000
v -7 -13 1 1.000000 1.000000 1.000000
v -8 -13 1 1.000000 1.000000 1.000000
v -8 -12 0 1.000000 1.000000 1.000000
v -7 -12 0 1.000000 1.000000 1.000000
v -7 -12 1 1.000000 1.000000 1.000000
v -8 -12 1 1.000000 1.000000 1.000000
v -3 -13 0 1.000000 1.000000 1.000000
v -2 -13 0 1.000000 1.000000 1.000000
v -2 -13 1 1.000000 1.000000 1.000000
v -3 -13 1 1.000000 1.000000 1.000000
v -3 -12 0 1.000000 1.000000 1.000000
v -2 -12 0 1.000000 1.000000 1.000000
v -2 -12 1 1.000000 1.000000 1.000000
v -3 -12 1 1.000000 1.000000 1.000000
v -16 -12 0 1.000000 1.000000 1.000000
v -15 -12 0 1.000000 1.000000 1.000000
v -15 -12 1 1.000000 1.000000 1.000000
v -16 -12 1 1.000000 1.000000 1.000000
v -15 -11 0 1.000000 1.000000 1.000000
v -16 -11 0 1.000000 1.000000 1.000000
v -16 -11 1 1.000000 1.000000 1.000000
v -15 -11 1 1.000000 1.000000 1.000000
v -14 -12 0 1.000000 1.000000 1.000000
v -14 -12 1 1.000000 1.000000 1.000000
v -14 -11 0 1.000000 1.000000 1.000000
v -14 -11 1 1.000000 1.000000 1.000000
v -13 -12 0 1.000000 1.000000 1.000000
v -13 -12 1 1.000000 1.000000 1.000000
v -13 -11 0 1.000000 1.000000 1.000000
v -13 -11 1 1.000000 1.000000 1.000000
v -12 -12 0 1.000000 1.000000 1.000000
v -12 -12 1 1.000000 1.000000 1.000000
v -12 -11 0 1.000000 1.000000 1.000000
v -12 -11 1 1.000000 1.000000 1.000000
v -11 -12 0 1.000000 1.000000 1.000000
v -11 -12 1 1.000000 1.000000 1.000000
v -11 -11 0 1.000000 1.000000 1.000000
v -11 -11 1 1.000000 1.000000 1.000000
v -10 -12 0 1.000000 1.000000 1.000000
v -10 -12 1 1.000000 1.000000 1.000000
v -10 -11 0 1.000000 1.000000 1.000000
v -10 -11 1 1.000000 1.000000 1.000000
v -9 -12 0 1.000000 1.000000 1.000000
v -9 -12 1 1.000000 1.000000 1.000000
v -9 -11 0 1.000000 1.000000 1.000000
v -9 -11 1 1.000000 1.000000 1.000000
v -8 -11 0 1.000000 1.000000 1.000000
v -8 -11 1 1.000000 1.000000 1.000000
v -7 -11 0 1.000000 1.000000 1.000000
v -7 -11 1 1.000000 1.000000 1.000000
v -6 -12 0 1.000000 1.000000 1.000000
v -6 -12 1 1.000000 1.000000 1.000000
v -6 -11 0 1.000000 1.000000 1.000000
v -6 -11 1 1.000000 1.000000 1.000000
v -5 -12 0 1.000000 1.000000 1.000000
v -5 -12 1 1.000000 1.000000 1.000000
v -5 -11 0 1.000000 1.000000 1.000000
v -5 -11 1 1.000000 1.000000 1.000000
v -4 -12 0 1.000000 1.000000 1.000000
v -4 -12 1 1.000000 1.000000 1.000000
v -4 -11 0 1.000000 1.000000 1.000000
v -4 -11 1 1.000000 1.000000 1.000000
v -3 -11 0 1.000000 1.000000 1.000000
v -3 -11 1 1.000000 1.000000 1.000000
v -2 -11 0 1.000000 1.000000 1.000000
v -2 -11 1 1.000000 1.000000 1.000000
v -1 -12 0 1.000000 1.000000 1.000000
v -1 -12 1 1.000000 1.000000 1.000000
v -1 -11 0 1.000000 1.000000 1.000000
v -1 -11 1 1.000000 1.000000 1.000000
v 0 -12 0 1.000000 1.000000 1.000000
v 0 -12 1 1.000000 1.000000 1.000000
v 0 -11 0 1.000000 1.000000 1.000000
v 0 -11 1 1.000000 1.000000 1.000000
vn 0 -1 0
vn 0 1 0
vn 0 0 -1
vn 0 0 1
vn -1 0 0
vn 1 0 0
f 1//1 2//1 3//1 4//1
f 5//2 6//2 7//2 8//2
f 1//3 6//3 5//3 2//3
f 3//4 8//4 7//4 4//4
f 1//5 4//5 7//5 6//5
f 2//1 9//1 10//1 3//1
f 11//2 5//2 8//2 12//2
f 2//3 5//3 11//3 9//3
f 10//4 12//4 8//4 3//4
f 9//1 13//1 14//1 10//1
f 15//2 11//2 12//2 16//2
f 9//3 11//3 15//3 13//3
f 14//4 16//4 12//4 10//4
f 13//6 15//6 16//6 14//6
f 17//1 18//1 19//1 20//1
f 21//2 22//2 23//2 24//2
f 17//3 22//3 21//3 18//3
f 19//4 24//4 23//4 20//4
f 18//6 21//6 24//6 19//6
f 17//5 20//5 23//5 22//5
f 25//1 26//1 27//1 28//1
f 29//2 30//2 31//2 32//2
f 25//3 30//3 29//3 26//3
f 27//4 32//4 31//4 28//4
f 25//5 28//5 31//5 30//5
f 26//1 33//1 34//1 27//1
f 26//3 29//3 35//3 33//3
f 34//4 36//4 32//4 27//4
f 33//6 35//6 36//6 34//6
f 37//1 38//1 39//1 40//1
f 41//2 42//2 43//2 44//2
f 37//3 42//3 41//3 38//3
f 39//4 44//4 43//4 40//4
f 38//6 41//6 44//6 39//6
f 37//5 40//5 43//5 42//5
f 45//1 46//1 47//1 48//1
f 49//2 50//2 51//2 52//2
f 45//3 50//3 49//3 46//3
f 47//4 52//4 51//4 48//4
f 46//6 49//6 52//6 47//6
f 45//5 48//5 51//5 50//5
f 53//2 54//2 55//2 56//2
f 29//3 54//3 53//3 35//3
f 36//4 56//4 55//4 32//4
f 29//5 32//5 55//5 54//5
f 35//1 57//1 58//1 36//1
f 59//2 53//2 56//2 60//2
f 35//3 53//3 59//3 57//3
f 58//4 60//4 56//4 36//4
f 57//6 59//6 60//6 58//6
f 61//1 62//1 63//1 64//1
f 61//3 65//3 66//3 62//3
f 63//4 67//4 68//4 64//4
f 62//6 66//6 67//6 63//6
f 61//5 64//5 68//5 65//5
f 69//1 70//1 71//1 72//1
f 69//3 73//3 74//3 70//3
f 71//4 75//4 76//4 72//4
f 70//6 74//6 75//6 71//6
f 69//5 72//5 76//5 73//5
f 77//1 78//1 79//1 80//1
f 81//2 82//2 83//2 84//2
f 77//3 82//3 81//3 78//3
f 79//4 84//4 83//4 80//4
f 77//5 80//5 83//5 82//5
f 78//1 85//1 86//1 79//1
f 87//2 81//2 84//2 88//2
f 78//3 81//3 87//3 85//3
f 86//4 88//4 84//4 79//4
f 85//1 89//1 90//1 86//1
f 91//2 87//2 88//2 92//2
f 85//3 87//3 91//3 89//3
f 90//4 92//4 88//4 86//4
f 89//1 93//1 94//1 90//1
f 95//2 91//2 92//2 96//2
f 89//3 91//3 95//3 93//3
f 94//4 96//4 92//4 90//4
f 93//1 97//1 98//1 94//1
f 99//2 95//2 96//2 100//2
f 93//3 95//3 99//3 97//3
f 98//4 100//4 96//4 94//4
f 97//1 101//1 102//1 98//1
f 103//2 99//2 100//2 104//2
f 97//3 99//3 103//3 101//3
f 102//4 104//4 100//4 98//4
f 101//1 105//1 106//1 102//1
f 107//2 103//2 104//2 108//2
f 101//3 103//3 107//3 105//3
f 106//4 108//4 104//4 102//4
f 105//1 65//1 68//1 106//1
f 109//2 107//2 108//2 110//2
f 105//3 107//3 109//3 65//3
f 68//4 110//4 108//4 106//4
f 111//2 109//2 110//2 112//2
f 65//3 109//3 111//3 66//3
f 67//4 112//4 110//4 68//4
f 66//1 113//1 114//1 67//1
f 115//2 111//2 112//2 116//2
f 66//3 111//3 115//3 113//3
f 114//4 116//4 112//4 67//4
f 113//1 117//1 118//1 114//1
f 119//2 115//2 116//2 120//2
f 113//3 115//3 119//3 117//3
f 118//4 120//4 116//4 114//4
f 117//1 121//1 122//1 118//1
f 123//2 119//2 120//2 124//2
f 117//3 119//3 123//3 121//3
f 122//4 124//4 120//4 118//4
f 121//1 73//1 76//1 122//1
f 125//2 123//2 124//2 126//2
f 121//3 123//3 125//3 73//3
f 76//4 126//4 124//4 122//4
f 127//2 125//2 126//2 128//2
f 73//3 125//3 127//3 74//3
f 75//4 128//4 126//4 76//4
f 74//1 129//1 130//1 75//1
f 131//2 127//2 128//2 132//2
f 74//3 127//3 131//3 129//3
f 130//4 132//4 128//4 75//4
f 129//1 133//1 134//1 130//1
f 135//2 131//2 132//2 136//2
f 129//3 131//3 135//3 133//3
f 134//4 136//4 132//4 130//4
f 133//6 135//6 136//6 134//6
