# Goxel 0.10.0
v -1 -16 0 1.000000 1.000000 1.000000
v 0 -16 0 1.000000 1.000000 1.000000
v 0 -16 1 1.000000 1.000000 1.000000
v -1 -16 1 1.000000 1.000000 1.000000
v 0 -15 0 1.000000 1.000000 1.000000
v -1 -15 0 1.000000 1.000000 1.000000
v -1 -15 1 1.000000 1.000000 1.000000
v 0 -15 1 1.000000 1.000000 1.000000
v -15 -15 0 1.000000 1.000000 1.000000
v -14 -15 0 1.000000 1.000000 1.000000
v -14 -15 1 1.000000 1.000000 1.000000
v -15 -15 1 1.000000 1.000000 1.000000
v -14 -14 0 1.000000 1.000000 1.000000
v -15 -14 0 1.000000 1.000000 1.000000
v -15 -14 1 1.000000 1.000000 1.000000
v -14 -14 1 1.000000 1.000000 1.000000
v -9 -15 0 1.000000 1.000000 1.000000
v -8 -15 0 1.000000 1.000000 1.000000
v -8 -15 1 1.000000 1.000000 1.000000
v -9 -15 1 1.000000 1.000000 1.000000
v -8 -14 0 1.000000 1.000000 1.000000
v -9 -14 0 1.000000 1.000000 1.000000
v -9 -14 1 1.000000 1.000000 1.000000
v -8 -14 1 1.000000 1.000000 1.000000
v -7 -15 0 1.000000 1.000000 1.000000
v -7 -15 1 1.000000 1.000000 1.000000
v -7 -14 0 1.000000 1.000000 1.000000
v -7 -14 1 1.000000 1.000000 1.000000
v -12 -14 0 1.000000 1.000000 1.000000
v -11 -14 0 1.000000 1.000000 1.000000
v -11 -14 1 1.000000 1.000000 1.000000
v -12 -14 1 1.000000 1.000000 1.000000
v -11 -13 0 1.000000 1.000000 1.000000
v -12 -13 0 1.000000 1.000000 1.000000
v -12 -13 1 1.000000 1.000000 1.000000
v -11 -13 1 1.000000 1.000000 1.000000
v -4 -13 0 1.000000 1.000000 1.000000
v -3 -13 0 1.000000 1.000000 1.000000
v -3 -13 1 1.000000 1.000000 1.000000
v -4 -13 1 1.000000 1.000000 1.000000
v -4 -12 0 1.000000 1.000000 1.000000
v -3 -12 0 1.000000 1.000000 1.000000
v -3 -12 1 1.000000 1.000000 1.000000
v -4 -12 1 1.000000 1.000000 1.000000
v -16 -12 0 1.000000 1.000000 1.000000
v -15 -12 0 1.000000 1.000000 1.000000
v -15 -12 1 1.000000 1.000000 1.000000
v -16 -12 1 1.000000 1.000000 1.000000
v -15 -11 0 1.000000 1.000000 1.000000
v -16 -11 0 1.000000 1.000000 1.000000
v -16 -11 1 1.000000 1.000000 1.000000
v -15 -11 1 1.000000 1.000000 1.000000
v -14 -12 0 1.000000 1.000000 1.000000
v -14 -12 1 1.000000 1.000000 1.000000
v -14 -11 0 1.000000 1.000000 1.000000
v -14 -11 1 1.000000 1.000000 1.000000
v -13 -12 0 1.000000 1.000000 1.000000
v -13 -12 1 1.000000 1.000000 1.000000
v -13 -11 0 1.000000 1.000000 1.000000
v -13 -11 1 1.000000 1.000000 1.000000
v -12 -12 0 1.000000 1.000000 1.000000
v -12 -12 1 1.000000 1.000000 1.000000
v -12 -11 0 1.000000 1.000000 1.000000
v -12 -11 1 1.000000 1.000000 1.000000
v -11 -12 0 1.000000 1.000000 1.000000
v -11 -12 1 1.000000 1.000000 1.000000
v -11 -11 0 1.000000 1.000000 1.000000
v -11 -11 1 1.000000 1.000000 1.000000
v -10 -12 0 1.000000 1.000000 1.000000
v -10 -12 1 1.000000 1.000000 1.000000
v -10 -11 0 1.000000 1.000000 1.000000
v -10 -11 1 1.000000 1.000000 1.000000
v -9 -12 0 1.000000 1.000000 1.000000
v -9 -12 1 1.000000 1.000000 1.000000
v -9 -11 0 1.000000 1.000000 1.000000
v -9 -11 1 1.000000 1.000000 1.000000
v -8 -12 0 1.000000 1.000000 1.000000
v -8 -12 1 1.000000 1.000000 1.000000
v -8 -11 0 1.000000 1.000000 1.000000
v -8 -11 1 1.000000 1.000000 1.000000
v -7 -12 0 1.000000 1.000000 1.000000
v -7 -12 1 1.000000 1.000000 1.000000
v -7 -11 0 1.000000 1.000000 1.000000
v -7 -11 1 1.000000 1.000000 1.000000
v -6 -12 0 1.000000 1.000000 1.000000
v -6 -12 1 1.000000 1.000000 1.000000
v -6 -11 0 1.000000 1.000000 1.000000
v -6 -11 1 1.000000 1.000000 1.000000
v -5 -12 0 1.000000 1.000000 1.000000
v -5 -12 1 1.000000 1.000000 1.000000
v -5 -11 0 1.000000 1.000000 1.000000
v -5 -11 1 1.000000 1.000000 1.000000
v -4 -11 0 1.000000 1.000000 1.000000
v -4 -11 1 1.000000 1.000000 1.000000
v -3 -11 0 1.000000 1.000000 1.000000
v -3 -11 1 1.000000 1.000000 1.000000
v -2 -12 0 1.000000 1.000000 1.000000
v -2 -12 1 1.000000 1.000000 1.000000
v -2 -11 0 1.000000 1.000000 1.000000
v -2 -11 1 1.000000 1.000000 1.000000
v -1 -12 0 1.000000 1.000000 1.000000
v -1 -12 1 1.000000 1.000000 1.000000
v -1 -11 0 1.000000 1.000000 1.000000
v -1 -11 1 1.000000 1.000000 1.000000
v 0 -12 0 1.000000 1.000000 1.000000
v 0 -12 1 1.000000 1.000000 1.000000
v 0 -11 0 1.000000 1.000000 1.000000
v 0 -11 1 1.000000 1.000000 1.000000
vn 0 -1 0
vn 0 1 0
vn 0 0 -1
vn 0 0 1
vn 1 0 0
vn -1 0 0
f 1//1 2//1 3//1 4//1
f 5//2 6//2 7//2 8//2
f 1//3 6//3 5//3 2//3
f 3//4 8//4 7//4 4//4
f 2//5 5//5 8//5 3//5
f 1//6 4//6 7//6 6//6
f 9//1 10//1 11//1 12//1
f 13//2 14//2 15//2 16//2
f 9//3 14//3 13//3 10//3
f 11//4 16//4 15//4 12//4
f 10//5 13//5 16//5 11//5
f 9//6 12//6 15//6 14//6
f 17//1 18//1 19//1 20//1
f 21//2 22//2 23//2 24//2
f 17//3 22//3 21//3 18//3
f 19//4 24//4 23//4 20//4
f 17//6 20//6 23//6 22//6
f 18//1 25//1 26//1 19//1
f 27//2 21//2 24//2 28//2
f 18//3 21//3 27//3 25//3
f 26//4 28//4 24//4 19//4
f 25//5 27//5 28//5 26//5
f 29//1 30//1 31//1 32//1
f 33//2 34//2 35//2 36//2
f 29//3 34//3 33//3 30//3
f 31//4 36//4 35//4 32//4
f 30//5 33//5 36//5 31//5
f 29//6 32//6 35//6 34//6
f 37//1 38//1 39//1 40//1
f 37//3 41//3 42//3 38//3
f 39//4 43//4 44//4 40//4
f 38//5 42//5 43//5 39//5
f 37//6 40//6 44//6 41//6
f 45//1 46//1 47//1 48//1
f 49//2 50//2 51//2 52//2
f 45//3 50//3 49//3 46//3
f 47//4 52//4 51//4 48//4
f 45//6 48//6 51//6 50//6
f 46//1 53//1 54//1 47//1
f 55//2 49//2 52//2 56//2
f 46//3 49//3 55//3 53//3
f 54//4 56//4 52//4 47//4
f 53//1 57//1 58//1 54//1
f 59//2 55//2 56//2 60//2
f 53//3 55//3 59//3 57//3
f 58//4 60//4 56//4 54//4
f 57//1 61//1 62//1 58//1
f 63//2 59//2 60//2 64//2
f 57//3 59//3 63//3 61//3
f 62//4 64//4 60//4 58//4
f 61//1 65//1 66//1 62//1
f 67//2 63//2 64//2 68//2
f 61//3 63//3 67//3 65//3
f 66//4 68//4 64//4 62//4
f 65//1 69//1 70//1 66//1
f 71//2 67//2 68//2 72//2
f 65//3 67//3 71//3 69//3
f 70//4 72//4 68//4 66//4
f 69//1 73//1 74//1 70//1
f 75//2 71//2 72//2 76//2
f 69//3 71//3 75//3 73//3
f 74//4 76//4 72//4 70//4
f 73//1 77//1 78//1 74//1
f 79//2 75//2 76//2 80//2
f 73//3 75//3 79//3 77//3
f 78//4 80//4 76//4 74//4
f 77//1 81//1 82//1 78//1
f 83//2 79//2 80//2 84//2
f 77//3 79//3 83//3 81//3
f 82//4 84//4 80//4 78//4
f 81//1 85//1 86//1 82//1
f 87//2 83//2 84//2 88//2
f 81//3 83//3 87//3 85//3
f 86//4 88//4 84//4 82//4
f 85//1 89//1 90//1 86//1
f 91//2 87//2 88//2 92//2
f 85//3 87//3 91//3 89//3
f 90//4 92//4 88//4 86//4
f 89//1 41//1 44//1 90//1
f 93//2 91//2 92//2 94//2
f 89//3 91//3 93//3 41//3
f 44//4 94//4 92//4 90//4
f 95//2 93//2 94//2 96//2
f 41//3 93//3 95//3 42//3
f 43//4 96//4 94//4 44//4
f 42//1 97//1 98//1 43//1
f 99//2 95//2 96//2 100//2
f 42//3 95//3 99//3 97//3
f 98//4 100//4 96//4 43//4
f 97//1 101//1 102//1 98//1
f 103//2 99//2 100//2 104//2
f 97//3 99//3 103//3 101//3
f 102//4 104//4 100//4 98//4
f 101//1 105//1 106//1 102//1
f 107//2 103//2 104//2 108//2
f 101//3 103//3 107//3 105//3
f 106//4 108//4 104//4 102//4
f 105//5 107//5 108//5 106//5
