# Goxel 0.10.0
v 7 0 0 1.000000 1.000000 1.000000
v 8 0 0 1.000000 1.000000 1.000000
v 8 0 1 1.000000 1.000000 1.000000
v 7 0 1 1.000000 1.000000 1.000000
v 7 1 0 1.000000 1.000000 1.000000
v 8 1 0 1.000000 1.000000 1.000000
v 8 1 1 1.000000 1.000000 1.000000
v 7 1 1 1.000000 1.000000 1.000000
v 9 0 0 1.000000 1.000000 1.000000
v 9 0 1 1.000000 1.000000 1.000000
v 9 1 0 1.000000 1.000000 1.000000
v 9 1 1 1.000000 1.000000 1.000000
v 10 0 0 1.000000 1.000000 1.000000
v 10 0 1 1.000000 1.000000 1.000000
v 10 1 0 1.000000 1.000000 1.000000
v 10 1 1 1.000000 1.000000 1.000000
v 7 2 0 1.000000 1.000000 1.000000
v 8 2 0 1.000000 1.000000 1.000000
v 8 2 1 1.000000 1.000000 1.000000
v 7 2 1 1.000000 1.000000 1.000000
v 9 2 0 1.000000 1.000000 1.000000
v 9 2 1 1.000000 1.000000 1.000000
v 10 2 0 1.000000 1.000000 1.000000
v 10 2 1 1.000000 1.000000 1.000000
v 11 1 0 1.000000 1.000000 1.000000
v 11 1 1 1.000000 1.000000 1.000000
v 11 2 0 1.000000 1.000000 1.000000
v 11 2 1 1.000000 1.000000 1.000000
v 12 1 0 1.000000 1.000000 1.000000
v 12 1 1 1.000000 1.000000 1.000000
v 12 2 0 1.000000 1.000000 1.000000
v 12 2 1 1.000000 1.000000 1.000000
v 8 3 0 1.000000 1.000000 1.000000
v 7 3 0 1.000000 1.000000 1.000000
v 7 3 1 1.000000 1.000000 1.000000
v 8 3 1 1.000000 1.000000 1.000000
v 9 3 0 1.000000 1.000000 1.000000
v 9 3 1 1.000000 1.000000 1.000000
v 10 3 0 1.000000 1.000000 1.000000
v 10 3 1 1.000000 1.000000 1.000000
v 11 3 0 1.000000 1.000000 1.000000
v 11 3 1 1.000000 1.000000 1.000000
v 12 3 0 1.000000 1.000000 1.000000
v 12 3 1 1.000000 1.000000 1.000000
v 13 2 0 1.000000 1.000000 1.000000
v 13 2 1 1.000000 1.000000 1.000000
v 13 3 0 1.000000 1.000000 1.000000
v 13 3 1 1.000000 1.000000 1.000000
v 8 4 0 1.000000 1.000000 1.000000
v 9 4 0 1.000000 1.000000 1.000000
v 9 4 1 1.000000 1.000000 1.000000
v 8 4 1 1.000000 1.000000 1.000000
v 10 4 0 1.000000 1.000000 1.000000
v 10 4 1 1.000000 1.000000 1.000000
v 11 4 0 1.000000 1.000000 1.000000
v 11 4 1 1.000000 1.000000 1.000000
v 12 4 0 1.000000 1.000000 1.000000
v 12 4 1 1.000000 1.000000 1.000000
v 13 4 0 1.000000 1.000000 1.000000
v 13 4 1 1.000000 1.000000 1.000000
v 14 3 0 1.000000 1.000000 1.000000
v 14 3 1 1.000000 1.000000 1.000000
v 14 4 0 1.000000 1.000000 1.000000
v 14 4 1 1.000000 1.000000 1.000000
v 15 3 0 1.000000 1.000000 1.000000
v 15 3 1 1.000000 1.000000 1.000000
v 15 4 0 1.000000 1.000000 1.000000
v 15 4 1 1.000000 1.000000 1.000000
v 16 3 0 1.000000 1.000000 1.000000
v 16 3 1 1.000000 1.000000 1.000000
v 16 4 0 1.000000 1.000000 1.000000
v 16 4 1 1.000000 1.000000 1.000000
v 9 5 0 1.000000 1.000000 1.000000
v 8 5 0 1.000000 1.000000 1.000000
v 8 5 1 1.000000 1.000000 1.000000
v 9 5 1 1.000000 1.000000 1.000000
v 10 5 0 1.000000 1.000000 1.000000
v 10 5 1 1.000000 1.000000 1.000000
v 11 5 0 1.000000 1.000000 1.000000
v 11 5 1 1.000000 1.000000 1.000000
v 12 5 0 1.000000 1.000000 1.000000
v 12 5 1 1.000000 1.000000 1.000000
v 13 5 0 1.000000 1.000000 1.000000
v 13 5 1 1.000000 1.000000 1.000000
v 14 5 0 1.000000 1.000000 1.000000
v 14 5 1 1.000000 1.000000 1.000000
v 15 5 0 1.000000 1.000000 1.000000
v 15 5 1 1.000000 1.000000 1.000000
v 16 5 0 1.000000 1.000000 1.000000
v 16 5 1 1.000000 1.000000 1.000000
v 9 6 0 1.000000 1.000000 1.000000
v 10 6 0 1.000000 1.000000 1.000000
v 10 6 1 1.000000 1.000000 1.000000
v 9 6 1 1.000000 1.000000 1.000000
v 11 6 0 1.000000 1.000000 1.000000
v 11 6 1 1.000000 1.000000 1.000000
v 12 6 0 1.000000 1.000000 1.000000
v 12 6 1 1.000000 1.000000 1.000000
v 13 6 0 1.000000 1.000000 1.000000
v 13 6 1 1.000000 1.000000 1.000000
v 14 6 0 1.000000 1.000000 1.000000
v 14 6 1 1.000000 1.000000 1.000000
v 15 6 0 1.000000 1.000000 1.000000
v 15 6 1 1.000000 1.000000 1.000000
v 16 6 0 1.000000 1.000000 1.000000
v 16 6 1 1.000000 1.000000 1.000000
v 8 6 0 1.000000 1.000000 1.000000
v 8 6 1 1.000000 1.000000 1.000000
v 8 7 0 1.000000 1.000000 1.000000
v 9 7 0 1.000000 1.000000 1.000000
v 9 7 1 1.000000 1.000000 1.000000
v 8 7 1 1.000000 1.000000 1.000000
v 10 7 0 1.000000 1.000000 1.000000
v 10 7 1 1.000000 1.000000 1.000000
v 11 7 0 1.000000 1.000000 1.000000
v 11 7 1 1.000000 1.000000 1.000000
v 12 7 0 1.000000 1.000000 1.000000
v 12 7 1 1.000000 1.000000 1.000000
v 13 7 0 1.000000 1.000000 1.000000
v 13 7 1 1.000000 1.000000 1.000000
v 14 7 0 1.000000 1.000000 1.000000
v 14 7 1 1.000000 1.000000 1.000000
v 15 7 0 1.000000 1.000000 1.000000
v 15 7 1 1.000000 1.000000 1.000000
v 16 7 0 1.000000 1.000000 1.000000
v 16 7 1 1.000000 1.000000 1.000000
v 7 7 0 1.000000 1.000000 1.000000
v 7 7 1 1.000000 1.000000 1.000000
v 7 8 0 1.000000 1.000000 1.000000
v 8 8 0 1.000000 1.000000 1.000000
v 8 8 1 1.000000 1.000000 1.000000
v 7 8 1 1.000000 1.000000 1.000000
v 9 8 0 1.000000 1.000000 1.000000
v 9 8 1 1.000000 1.000000 1.000000
v 10 8 0 1.000000 1.000000 1.000000
v 10 8 1 1.000000 1.000000 1.000000
v 0 8 0 1.000000 1.000000 1.000000
v 1 8 0 1.000000 1.000000 1.000000
v 1 8 1 1.000000 1.000000 1.000000
v 0 8 1 1.000000 1.000000 1.000000
v 1 9 0 1.000000 1.000000 1.000000
v 0 9 0 1.000000 1.000000 1.000000
v 0 9 1 1.000000 1.000000 1.000000
v 1 9 1 1.000000 1.000000 1.000000
v 2 8 0 1.000000 1.000000 1.000000
v 2 8 1 1.000000 1.000000 1.000000
v 2 9 0 1.000000 1.000000 1.000000
v 2 9 1 1.000000 1.000000 1.000000
v 3 8 0 1.000000 1.000000 1.000000
v 3 8 1 1.000000 1.000000 1.000000
v 3 9 0 1.000000 1.000000 1.000000
v 3 9 1 1.000000 1.000000 1.000000
v 4 8 0 1.000000 1.000000 1.000000
v 4 8 1 1.000000 1.000000 1.000000
v 4 9 0 1.000000 1.000000 1.000000
v 4 9 1 1.000000 1.000000 1.000000
v 5 8 0 1.000000 1.000000 1.000000
v 5 8 1 1.000000 1.000000 1.000000
v 5 9 0 1.000000 1.000000 1.000000
v 5 9 1 1.000000 1.000000 1.000000
v 6 8 0 1.000000 1.000000 1.000000
v 6 8 1 1.000000 1.000000 1.000000
v 6 9 0 1.000000 1.000000 1.000000
v 6 9 1 1.000000 1.000000 1.000000
v 7 9 0 1.000000 1.000000 1.000000
v 7 9 1 1.000000 1.000000 1.000000
v 8 9 0 1.000000 1.000000 1.000000
v 8 9 1 1.000000 1.000000 1.000000
v 2 10 0 1.000000 1.000000 1.000000
v 1 10 0 1.000000 1.000000 1.000000
v 1 10 1 1.000000 1.000000 1.000000
v 2 10 1 1.000000 1.000000 1.000000
v 3 10 0 1.000000 1.000000 1.000000
v 3 10 1 1.000000 1.000000 1.000000
v 4 10 0 1.000000 1.000000 1.000000
v 4 10 1 1.000000 1.000000 1.000000
v 5 10 0 1.000000 1.000000 1.000000
v 5 10 1 1.000000 1.000000 1.000000
v 6 10 0 1.000000 1.000000 1.000000
v 6 10 1 1.000000 1.000000 1.000000
v 7 10 0 1.000000 1.000000 1.000000
v 7 10 1 1.000000 1.000000 1.000000
v 3 11 0 1.000000 1.000000 1.000000
v 2 11 0 1.000000 1.000000 1.000000
v 2 11 1 1.000000 1.000000 1.000000
v 3 11 1 1.000000 1.000000 1.000000
v 4 11 0 1.000000 1.000000 1.000000
v 4 11 1 1.000000 1.000000 1.000000
v 5 11 0 1.000000 1.000000 1.000000
v 5 11 1 1.000000 1.000000 1.000000
v 6 11 0 1.000000 1.000000 1.000000
v 6 11 1 1.000000 1.000000 1.000000
v 7 11 0 1.000000 1.000000 1.000000
v 7 11 1 1.000000 1.000000 1.000000
v 4 12 0 1.000000 1.000000 1.000000
v 3 12 0 1.000000 1.000000 1.000000
v 3 12 1 1.000000 1.000000 1.000000
v 4 12 1 1.000000 1.000000 1.000000
v 5 12 0 1.000000 1.000000 1.000000
v 5 12 1 1.000000 1.000000 1.000000
v 6 12 0 1.000000 1.000000 1.000000
v 6 12 1 1.000000 1.000000 1.000000
v 5 13 0 1.000000 1.000000 1.000000
v 4 13 0 1.000000 1.000000 1.000000
v 4 13 1 1.000000 1.000000 1.000000
v 5 13 1 1.000000 1.000000 1.000000
v 6 13 0 1.000000 1.000000 1.000000
v 6 13 1 1.000000 1.000000 1.000000
v 17 3 0 1.000000 1.000000 1.000000
v 17 3 1 1.000000 1.000000 1.000000
v 17 4 0 1.000000 1.000000 1.000000
v 17 4 1 1.000000 1.000000 1.000000
v 18 3 0 1.000000 1.000000 1.000000
v 18 3 1 1.000000 1.000000 1.000000
v 18 4 0 1.000000 1.000000 1.000000
v 18 4 1 1.000000 1.000000 1.000000
v 17 5 0 1.000000 1.000000 1.000000
v 17 5 1 1.000000 1.000000 1.000000
v 18 5 0 1.000000 1.000000 1.000000
v 18 5 1 1.000000 1.000000 1.000000
v 19 4 0 1.000000 1.000000 1.000000
v 19 4 1 1.000000 1.000000 1.000000
v 19 5 0 1.000000 1.000000 1.000000
v 19 5 1 1.000000 1.000000 1.000000
v 20 4 0 1.000000 1.000000 1.000000
v 20 4 1 1.000000 1.000000 1.000000
v 20 5 0 1.000000 1.000000 1.000000
v 20 5 1 1.000000 1.000000 1.000000
v 21 4 0 1.000000 1.000000 1.000000
v 21 4 1 1.000000 1.000000 1.000000
v 21 5 0 1.000000 1.000000 1.000000
v 21 5 1 1.000000 1.000000 1.000000
v 17 6 0 1.000000 1.000000 1.000000
v 17 6 1 1.000000 1.000000 1.000000
v 18 6 0 1.000000 1.000000 1.000000
v 18 6 1 1.000000 1.000000 1.000000
v 19 6 0 1.000000 1.000000 1.000000
v 19 6 1 1.000000 1.000000 1.000000
v 17 7 0 1.000000 1.000000 1.000000
v 17 7 1 1.000000 1.000000 1.000000
v 18 7 0 1.000000 1.000000 1.000000
v 18 7 1 1.000000 1.000000 1.000000
v 19 7 0 1.000000 1.000000 1.000000
v 19 7 1 1.000000 1.000000 1.000000
v 20 6 0 1.000000 1.000000 1.000000
v 20 6 1 1.000000 1.000000 1.000000
v 20 7 0 1.000000 1.000000 1.000000
v 20 7 1 1.000000 1.000000 1.000000
v 21 6 0 1.000000 1.000000 1.000000
v 21 6 1 1.000000 1.000000 1.000000
v 21 7 0 1.000000 1.000000 1.000000
v 21 7 1 1.000000 1.000000 1.000000
vn 0 -1 0
vn 0 0 -1
vn 0 0 1
vn -1 0 0
vn 1 0 0
vn 0 1 0
f 1//1 2//1 3//1 4//1
f 1//2 5//2 6//2 2//2
f 3//3 7//3 8//3 4//3
f 1//4 4//4 8//4 5//4
f 2//1 9//1 10//1 3//1
f 2//2 6//2 11//2 9//2
f 10//3 12//3 7//3 3//3
f 9//1 13//1 14//1 10//1
f 9//2 11//2 15//2 13//2
f 14//3 16//3 12//3 10//3
f 13//5 15//5 16//5 14//5
f 5//2 17//2 18//2 6//2
f 7//3 19//3 20//3 8//3
f 5//4 8//4 20//4 17//4
f 6//2 18//2 21//2 11//2
f 12//3 22//3 19//3 7//3
f 11//2 21//2 23//2 15//2
f 16//3 24//3 22//3 12//3
f 15//1 25//1 26//1 16//1
f 15//2 23//2 27//2 25//2
f 26//3 28//3 24//3 16//3
f 25//1 29//1 30//1 26//1
f 25//2 27//2 31//2 29//2
f 30//3 32//3 28//3 26//3
f 29//5 31//5 32//5 30//5
f 33//6 34//6 35//6 36//6
f 17//2 34//2 33//2 18//2
f 19//3 36//3 35//3 20//3
f 17//4 20//4 35//4 34//4
f 18//2 33//2 37//2 21//2
f 22//3 38//3 36//3 19//3
f 21//2 37//2 39//2 23//2
f 24//3 40//3 38//3 22//3
f 23//2 39//2 41//2 27//2
f 28//3 42//3 40//3 24//3
f 27//2 41//2 43//2 31//2
f 32//3 44//3 42//3 28//3
f 31//1 45//1 46//1 32//1
f 31//2 43//2 47//2 45//2
f 46//3 48//3 44//3 32//3
f 45//5 47//5 48//5 46//5
f 33//2 49//2 50//2 37//2
f 38//3 51//3 52//3 36//3
f 33//4 36//4 52//4 49//4
f 37//2 50//2 53//2 39//2
f 40//3 54//3 51//3 38//3
f 39//2 53//2 55//2 41//2
f 42//3 56//3 54//3 40//3
f 41//2 55//2 57//2 43//2
f 44//3 58//3 56//3 42//3
f 43//2 57//2 59//2 47//2
f 48//3 60//3 58//3 44//3
f 47//1 61//1 62//1 48//1
f 47//2 59//2 63//2 61//2
f 62//3 64//3 60//3 48//3
f 61//1 65//1 66//1 62//1
f 61//2 63//2 67//2 65//2
f 66//3 68//3 64//3 62//3
f 65//1 69//1 70//1 66//1
f 65//2 67//2 71//2 69//2
f 70//3 72//3 68//3 66//3
f 73//6 74//6 75//6 76//6
f 49//2 74//2 73//2 50//2
f 51//3 76//3 75//3 52//3
f 49//4 52//4 75//4 74//4
f 50//2 73//2 77//2 53//2
f 54//3 78//3 76//3 51//3
f 53//2 77//2 79//2 55//2
f 56//3 80//3 78//3 54//3
f 55//2 79//2 81//2 57//2
f 58//3 82//3 80//3 56//3
f 57//2 81//2 83//2 59//2
f 60//3 84//3 82//3 58//3
f 59//2 83//2 85//2 63//2
f 64//3 86//3 84//3 60//3
f 63//2 85//2 87//2 67//2
f 68//3 88//3 86//3 64//3
f 67//2 87//2 89//2 71//2
f 72//3 90//3 88//3 68//3
f 73//2 91//2 92//2 77//2
f 78//3 93//3 94//3 76//3
f 73//4 76//4 94//4 91//4
f 77//2 92//2 95//2 79//2
f 80//3 96//3 93//3 78//3
f 79//2 95//2 97//2 81//2
f 82//3 98//3 96//3 80//3
f 81//2 97//2 99//2 83//2
f 84//3 100//3 98//3 82//3
f 83//2 99//2 101//2 85//2
f 86//3 102//3 100//3 84//3
f 85//2 101//2 103//2 87//2
f 88//3 104//3 102//3 86//3
f 87//2 103//2 105//2 89//2
f 90//3 106//3 104//3 88//3
f 107//1 91//1 94//1 108//1
f 107//2 109//2 110//2 91//2
f 94//3 111//3 112//3 108//3
f 107//4 108//4 112//4 109//4
f 91//2 110//2 113//2 92//2
f 93//3 114//3 111//3 94//3
f 115//6 113//6 114//6 116//6
f 92//2 113//2 115//2 95//2
f 96//3 116//3 114//3 93//3
f 117//6 115//6 116//6 118//6
f 95//2 115//2 117//2 97//2
f 98//3 118//3 116//3 96//3
f 119//6 117//6 118//6 120//6
f 97//2 117//2 119//2 99//2
f 100//3 120//3 118//3 98//3
f 121//6 119//6 120//6 122//6
f 99//2 119//2 121//2 101//2
f 102//3 122//3 120//3 100//3
f 123//6 121//6 122//6 124//6
f 101//2 121//2 123//2 103//2
f 104//3 124//3 122//3 102//3
f 125//6 123//6 124//6 126//6
f 103//2 123//2 125//2 105//2
f 106//3 126//3 124//3 104//3
f 127//1 109//1 112//1 128//1
f 127//2 129//2 130//2 109//2
f 112//3 131//3 132//3 128//3
f 127//4 128//4 132//4 129//4
f 133//6 130//6 131//6 134//6
f 109//2 130//2 133//2 110//2
f 111//3 134//3 131//3 112//3
f 135//6 133//6 134//6 136//6
f 110//2 133//2 135//2 113//2
f 114//3 136//3 134//3 111//3
f 113//5 135//5 136//5 114//5
f 137//1 138//1 139//1 140//1
f 141//6 142//6 143//6 144//6
f 137//2 142//2 141//2 138//2
f 139//3 144//3 143//3 140//3
f 137//4 140//4 143//4 142//4
f 138//1 145//1 146//1 139//1
f 138//2 141//2 147//2 145//2
f 146//3 148//3 144//3 139//3
f 145//1 149//1 150//1 146//1
f 145//2 147//2 151//2 149//2
f 150//3 152//3 148//3 146//3
f 149//1 153//1 154//1 150//1
f 149//2 151//2 155//2 153//2
f 154//3 156//3 152//3 150//3
f 153//1 157//1 158//1 154//1
f 153//2 155//2 159//2 157//2
f 158//3 160//3 156//3 154//3
f 157//1 161//1 162//1 158//1
f 157//2 159//2 163//2 161//2
f 162//3 164//3 160//3 158//3
f 161//1 129//1 132//1 162//1
f 161//2 163//2 165//2 129//2
f 132//3 166//3 164//3 162//3
f 167//6 165//6 166//6 168//6
f 129//2 165//2 167//2 130//2
f 131//3 168//3 166//3 132//3
f 130//5 167//5 168//5 131//5
f 169//6 170//6 171//6 172//6
f 141//2 170//2 169//2 147//2
f 148//3 172//3 171//3 144//3
f 141//4 144//4 171//4 170//4
f 147//2 169//2 173//2 151//2
f 152//3 174//3 172//3 148//3
f 151//2 173//2 175//2 155//2
f 156//3 176//3 174//3 152//3
f 155//2 175//2 177//2 159//2
f 160//3 178//3 176//3 156//3
f 159//2 177//2 179//2 163//2
f 164//3 180//3 178//3 160//3
f 163//2 179//2 181//2 165//2
f 166//3 182//3 180//3 164//3
f 165//5 181//5 182//5 166//5
f 183//6 184//6 185//6 186//6
f 169//2 184//2 183//2 173//2
f 174//3 186//3 185//3 172//3
f 169//4 172//4 185//4 184//4
f 173//2 183//2 187//2 175//2
f 176//3 188//3 186//3 174//3
f 175//2 187//2 189//2 177//2
f 178//3 190//3 188//3 176//3
f 177//2 189//2 191//2 179//2
f 180//3 192//3 190//3 178//3
f 193//6 191//6 192//6 194//6
f 179//2 191//2 193//2 181//2
f 182//3 194//3 192//3 180//3
f 181//5 193//5 194//5 182//5
f 195//6 196//6 197//6 198//6
f 183//2 196//2 195//2 187//2
f 188//3 198//3 197//3 186//3
f 183//4 186//4 197//4 196//4
f 187//2 195//2 199//2 189//2
f 190//3 200//3 198//3 188//3
f 189//2 199//2 201//2 191//2
f 192//3 202//3 200//3 190//3
f 191//5 201//5 202//5 192//5
f 203//6 204//6 205//6 206//6
f 195//2 204//2 203//2 199//2
f 200//3 206//3 205//3 198//3
f 195//4 198//4 205//4 204//4
f 207//6 203//6 206//6 208//6
f 199//2 203//2 207//2 201//2
f 202//3 208//3 206//3 200//3
f 201//5 207//5 208//5 202//5
f 69//1 209//1 210//1 70//1
f 69//2 71//2 211//2 209//2
f 210//3 212//3 72//3 70//3
f 209//1 213//1 214//1 210//1
f 209//2 211//2 215//2 213//2
f 214//3 216//3 212//3 210//3
f 213//5 215//5 216//5 214//5
f 71//2 89//2 217//2 211//2
f 212//3 218//3 90//3 72//3
f 211//2 217//2 219//2 215//2
f 216//3 220//3 218//3 212//3
f 215//1 221//1 222//1 216//1
f 215//2 219//2 223//2 221//2
f 222//3 224//3 220//3 216//3
f 221//1 225//1 226//1 222//1
f 227//6 223//6 224//6 228//6
f 221//2 223//2 227//2 225//2
f 226//3 228//3 224//3 222//3
f 225//1 229//1 230//1 226//1
f 231//6 227//6 228//6 232//6
f 225//2 227//2 231//2 229//2
f 230//3 232//3 228//3 226//3
f 229//5 231//5 232//5 230//5
f 89//2 105//2 233//2 217//2
f 218//3 234//3 106//3 90//3
f 217//2 233//2 235//2 219//2
f 220//3 236//3 234//3 218//3
f 219//2 235//2 237//2 223//2
f 224//3 238//3 236//3 220//3
f 223//5 237//5 238//5 224//5
f 239//6 125//6 126//6 240//6
f 105//2 125//2 239//2 233//2
f 234//3 240//3 126//3 106//3
f 241//6 239//6 240//6 242//6
f 233//2 239//2 241//2 235//2
f 236//3 242//3 240//3 234//3
f 243//6 241//6 242//6 244//6
f 235//2 241//2 243//2 237//2
f 238//3 244//3 242//3 236//3
f 237//1 245//1 246//1 238//1
f 247//6 243//6 244//6 248//6
f 237//2 243//2 247//2 245//2
f 246//3 248//3 244//3 238//3
f 245//1 249//1 250//1 246//1
f 251//6 247//6 248//6 252//6
f 245//2 247//2 251//2 249//2
f 250//3 252//3 248//3 246//3
f 249//5 251//5 252//5 250//5
