<?xml version="1.0" encoding="utf-8"?>
<!-- Generator: Adobe Illustrator 22.1.0, SVG Export Plug-In . SVG Version: 6.00 Build 0)  -->
<svg version="1.1" id="Layer_1" xmlns="http://www.w3.org/2000/svg" xmlns:xlink="http://www.w3.org/1999/xlink" x="0px" y="0px"
	 viewBox="0 0 96 96" style="enable-background:new 0 0 96 96;" xml:space="preserve">
<title>sprplay</title>
<rect x="62.5" y="42" width="29" height="5.1"/>
<rect x="72.5" y="47.1" width="23.5" height="10"/>
<rect x="46.4" y="35.8" transform="matrix(6.123234e-17 -1 1 6.123234e-17 -6.4648 108.3583)" width="9.1" height="43.2"/>
<rect x="45.5" y="30.9" transform="matrix(6.123234e-17 -1 1 6.123234e-17 -1.5995 98.3854)" width="5.8" height="38.1"/>
<rect x="72.5" y="57.1" width="9.3" height="9.6"/>
<rect x="81.8" y="61.8" width="9.7" height="5"/>
<rect x="29.3" y="68.6" width="4.5" height="18.7"/>
<rect x="33.9" y="81.4" width="4.5" height="5.9"/>
<rect x="20.6" y="47.1" width="8.7" height="12.6"/>
<rect x="15.2" y="59.7" width="14.1" height="14.1"/>
<rect x="5.3" y="59.7" width="9.9" height="4.9"/>
<rect x="10.3" y="64.6" width="4.9" height="4"/>
<rect x="15.2" y="81.4" width="9.4" height="5.9"/>
<rect x="15.2" y="73.8" width="4.7" height="7.6"/>
<rect y="45.3" width="10.8" height="4.2"/>
<rect x="60.6" y="61.8" width="11.9" height="5"/>
<rect y="52.1" width="20.6" height="7.6"/>
<rect y="59.7" width="5.3" height="3.3"/>
<rect y="49.5" width="10.8" height="2.7"/>
<rect x="29.3" y="61.8" width="26.3" height="6.8"/>
<rect x="42.5" y="68.6" width="8.4" height="4"/>
<rect x="33.9" y="72.6" width="8.6" height="4.5"/>
<rect x="33.9" y="68.6" width="4.3" height="4"/>
<rect y="39.9" width="5.3" height="5.3"/>
</svg>
