<svg id="Layer_1" data-name="Layer 1" xmlns="http://www.w3.org/2000/svg" viewBox="0 0 96 96"><title>sprplay</title><rect width="12" height="12"/><rect x="6" y="6" width="12" height="12"/><rect x="12" y="12" width="12" height="12"/><rect x="18" y="18" width="12" height="12"/><rect x="24" y="24" width="12" height="12"/><rect x="30" y="30" width="12" height="12"/><rect x="36" y="36" width="12" height="12"/><rect x="48" y="48" width="12" height="12"/><rect x="54" y="54" width="12" height="12"/><rect x="60" y="60" width="12" height="12"/><rect x="66" y="66" width="12" height="12"/><rect x="72" y="72" width="12" height="12"/><rect x="78" y="78" width="12" height="12"/><rect x="84" y="84" width="12" height="12"/><rect x="84" width="12" height="12" transform="translate(180 12) rotate(-180)"/><rect x="78" y="6" width="12" height="12" transform="translate(168 24) rotate(-180)"/><rect x="72" y="12" width="12" height="12" transform="translate(156 36) rotate(-180)"/><rect x="66" y="18" width="12" height="12" transform="translate(144 48) rotate(-180)"/><rect x="60" y="24" width="12" height="12" transform="translate(132 60) rotate(-180)"/><rect x="54" y="30" width="12" height="12" transform="translate(120 72) rotate(-180)"/><rect x="48" y="36" width="12" height="12" transform="translate(108 84) rotate(-180)"/><rect x="36" y="48" width="12" height="12" transform="translate(84 108) rotate(-180)"/><rect x="30" y="54" width="12" height="12" transform="translate(72 120) rotate(-180)"/><rect x="24" y="60" width="12" height="12" transform="translate(60 132) rotate(-180)"/><rect x="18" y="66" width="12" height="12" transform="translate(48 144) rotate(-180)"/><rect x="12" y="72" width="12" height="12" transform="translate(36 156) rotate(-180)"/><rect x="6" y="78" width="12" height="12" transform="translate(24 168) rotate(-180)"/><rect y="84" width="12" height="12" transform="translate(12 180) rotate(-180)"/></svg>