<?xml version="1.0" encoding="utf-8"?>
<!-- Generator: Adobe Illustrator 22.1.0, SVG Export Plug-In . SVG Version: 6.00 Build 0)  -->
<svg version="1.1" id="Layer_1" xmlns="http://www.w3.org/2000/svg" xmlns:xlink="http://www.w3.org/1999/xlink" x="0px" y="0px"
	 viewBox="0 0 96 96" style="enable-background:new 0 0 96 96;" xml:space="preserve">
<title>sprplay</title>
<rect x="50.8" width="27.7" height="4.9"/>
<rect x="60.4" y="4.9" width="22.5" height="9.6"/>
<rect x="46.3" y="4.9" width="8.7" height="45.7"/>
<rect x="55" y="9.7" width="5.4" height="37.1"/>
<rect x="60.4" y="14.5" width="8.9" height="8.9"/>
<rect x="69.3" y="18.9" width="9.2" height="4.4"/>
<rect x="60.2" y="32.7" width="9.2" height="4.4"/>
<rect x="64.2" y="27.8" width="5.3" height="5.3"/>
<rect x="46.3" y="50.6" width="4.4" height="17.9"/>
<rect x="50.6" y="62.9" width="4.4" height="5.6"/>
<rect x="19.2" y="32.3" width="27.1" height="9.8"/>
<rect x="41.7" y="23.4" width="4.5" height="8.9"/>
<rect x="36.9" y="27.8" width="4.8" height="4.4"/>
<rect x="32.7" y="42.1" width="13.6" height="13.6"/>
<rect x="23.2" y="42.1" width="9.5" height="4.7"/>
<rect x="28" y="46.8" width="4.7" height="3.8"/>
<rect x="32.7" y="62.9" width="9" height="5.6"/>
<rect x="32.7" y="55.6" width="4.5" height="7.3"/>
<rect x="19.2" y="28.2" width="9.3" height="4"/>
<rect x="19.2" y="23.4" width="4.7" height="4.8"/>
<rect x="32.7" y="76.1" width="4.2" height="14.4"/>
<rect x="46.3" y="76.1" width="4.4" height="14.4"/>
<rect x="55" y="91.4" width="11.9" height="4.6"/>
<rect x="14.7" y="91.4" width="13.6" height="4.6"/>
</svg>
